{"glyphs":{"0":{"ha":1151,"x_min":-24,"x_max":1224,"o":"m 672 240 l 815 374 l 531 685 l 386 551 l 672 240 m 204 915 l 246 965 l 731 965 l 1224 432 l 656 -92 l 483 -92 l -24 463 l 17 508 l 297 767 l 197 828 l 204 915 z "},"1":{"ha":567,"x_min":-1,"x_max":539,"o":"m 406 -167 q 223 -111 322 -131 q -1 -90 124 -92 l 6 11 l 47 58 q 83 69 68 64 q 113 78 99 75 l 175 793 l 76 843 l 89 932 l 131 982 l 464 1015 l 519 961 l 442 57 l 539 -49 l 406 -167 z "},"2":{"ha":954,"x_min":47,"x_max":990,"o":"m 990 965 l 983 857 l 933 815 l 856 794 l 889 614 l 838 571 q 674 498 747 531 q 544 431 600 465 q 453 359 489 397 q 400 272 417 321 q 383 193 383 224 q 388 163 383 175 l 647 163 l 710 351 l 753 401 l 881 401 l 840 -50 l 792 -92 l 85 -92 q 57 6 67 -40 q 47 90 47 51 q 61 212 47 150 q 115 325 75 274 q 210 424 157 378 q 322 510 264 471 q 438 582 379 550 q 546 639 496 614 q 513 703 532 678 q 473 742 494 728 q 427 763 451 757 q 376 772 403 769 l 321 601 l 272 560 l 161 560 l 161 915 l 183 965 l 990 965 z "},"3":{"ha":946,"x_min":19,"x_max":942,"o":"m 167 956 l 208 1006 l 575 1032 l 625 975 l 643 990 l 942 733 l 828 601 q 868 522 868 549 q 852 476 868 496 q 796 432 836 457 l 733 393 l 839 315 q 898 259 876 288 q 919 200 919 231 q 908 153 919 176 q 880 108 897 129 q 841 70 863 88 q 799 43 819 53 l 418 -142 l 19 158 l 49 485 l 90 536 l 331 363 l 338 381 l 511 481 l 433 557 l 403 528 q 106 606 106 528 q 108 625 106 619 q 118 640 111 631 l 247 839 l 161 858 l 167 956 z "},"4":{"ha":908,"x_min":51,"x_max":946,"o":"m 388 540 q 415 505 388 518 q 474 489 443 492 l 494 725 q 448 656 469 692 q 393 558 426 621 q 388 540 388 547 m 890 818 l 831 790 l 771 107 l 808 107 l 808 -19 l 758 -61 q 541 -113 649 -83 q 324 -185 433 -143 l 324 -54 l 433 38 l 457 286 q 406 282 431 283 q 357 281 381 281 q 235 289 292 281 q 138 318 179 297 q 74 375 97 339 q 51 468 51 411 q 67 549 51 510 q 106 630 82 589 q 161 714 131 671 q 224 806 192 757 l 221 806 q 195 808 214 806 q 140 815 176 810 l 147 947 l 189 997 l 475 964 q 509 944 494 953 q 533 924 524 935 l 553 946 l 613 993 l 946 961 l 946 861 l 890 818 z "},"5":{"ha":981,"x_min":33,"x_max":1014,"o":"m 578 244 q 576 293 578 269 q 571 340 574 317 l 490 340 l 578 244 m 567 746 q 531 732 547 739 q 500 715 514 725 l 435 572 l 506 572 q 488 606 488 585 q 490 625 488 619 q 499 640 492 631 l 567 746 m 1014 974 l 826 692 l 846 692 l 835 569 l 806 549 q 872 369 851 451 q 892 213 892 288 q 869 70 892 147 q 772 -92 846 -7 l 432 -92 l 257 99 l 206 -47 l 157 -89 l 33 -89 l 74 351 l 97 375 l 71 404 l 204 783 l 79 817 l 86 915 l 128 965 l 558 965 l 590 1004 l 944 1033 l 1014 974 z "},"6":{"ha":1007,"x_min":38,"x_max":990,"o":"m 649 690 l 990 322 l 981 200 l 494 -137 l 38 367 l 44 463 l 86 510 l 471 789 l 361 811 l 368 915 l 410 965 l 790 965 l 847 840 l 649 690 z "},"7":{"ha":890,"x_min":93,"x_max":932,"o":"m 932 965 l 925 857 l 875 815 l 796 794 l 831 614 l 779 571 q 631 499 697 535 q 517 424 564 463 q 445 342 471 386 q 419 249 419 299 q 626 -50 419 142 l 572 -92 l 131 -92 q 103 6 113 -40 q 93 90 93 51 q 99 172 93 136 q 117 238 104 207 q 149 301 129 269 q 199 372 169 333 q 324 504 251 442 q 490 626 396 567 q 458 697 476 669 q 416 741 439 725 q 368 763 393 757 q 317 772 343 769 l 263 601 l 214 560 l 101 560 l 101 915 l 124 965 l 932 965 z "},"8":{"ha":919,"x_min":13,"x_max":935,"o":"m 935 685 l 925 572 l 875 531 l 725 440 l 906 365 l 889 168 l 353 -135 l 13 67 l 31 243 l 71 283 l 172 338 l 43 399 l 54 529 l 96 576 l 121 593 l 69 694 l 110 742 l 444 975 l 935 685 m 419 596 l 401 581 l 535 517 l 546 526 l 419 596 m 546 172 l 565 178 l 415 251 l 399 242 l 546 172 z "},"9":{"ha":1007,"x_min":54,"x_max":1008,"o":"m 324 246 l 54 551 l 64 668 l 106 715 l 547 1011 l 1008 504 l 999 406 l 569 83 l 683 63 l 683 -50 l 626 -92 l 253 -92 l 199 28 l 239 75 l 315 129 l 275 193 l 324 246 z "}," ":{"ha":293,"x_min":0,"x_max":0,"o":""},"!":{"ha":568,"x_min":51,"x_max":628,"o":"m 74 244 l 133 314 l 175 781 q 76 818 175 789 l 83 919 l 125 968 q 549 1044 371 968 l 628 961 l 511 853 l 468 356 l 474 339 l 525 286 l 500 4 l 488 -1 l 450 -39 l 247 -136 l 51 -35 l 74 244 z "},"\"":{"ha":575,"x_min":75,"x_max":618,"o":"m 118 724 q 75 971 118 825 l 115 1021 l 618 1021 q 464 576 594 810 l 415 533 l 308 533 l 285 561 l 257 533 l 97 533 q 118 724 118 656 z "},"$":{"ha":957,"x_min":56,"x_max":1010,"o":"m 482 560 l 482 563 q 485 583 482 572 q 497 603 489 594 l 499 606 q 479 590 488 599 q 464 572 471 582 l 465 572 l 457 560 l 482 560 m 824 649 l 836 649 l 836 560 l 793 65 l 743 24 l 535 24 l 528 -76 l 478 -118 l 272 -118 l 289 76 l 331 125 l 272 186 l 226 68 l 178 26 l 56 26 l 85 357 l 99 371 l 78 396 l 188 635 l 65 669 l 72 768 l 114 817 l 353 817 l 361 917 l 403 967 l 615 967 l 939 990 l 1010 929 l 824 649 z "},"%":{"ha":1240,"x_min":-65,"x_max":1344,"o":"m 499 664 l 508 671 l 464 717 l 456 708 l 499 664 m 815 158 l 824 167 l 781 211 l 772 204 l 815 158 m 400 358 l 285 358 l 75 586 l 118 629 l 115 632 l 261 767 l 161 828 l 167 915 l 208 965 l 693 965 l 856 793 l 1035 965 l 1344 965 l 881 517 l 994 517 l 1208 285 l 1017 108 l 1121 46 l 1115 -49 l 1065 -90 l 586 -90 l 425 76 l 250 -90 l -65 -90 l -29 -51 l 400 358 z "},"&":{"ha":872,"x_min":21,"x_max":879,"o":"m 786 82 q 827 21 804 54 q 879 -50 850 -12 l 825 -92 l 560 -92 l 522 -32 l 383 -93 l 78 42 q 33 86 44 57 q 21 143 21 115 q 72 247 21 196 q 207 342 124 299 l 146 342 q 93 359 104 342 q 82 403 82 376 q 107 454 82 421 q 165 524 132 488 q 233 594 199 560 q 285 649 267 629 l 146 599 l 97 693 l 138 740 l 469 990 l 682 799 l 443 544 l 804 544 l 794 411 q 772 394 783 404 q 746 369 761 385 q 726 369 735 369 q 707 367 717 369 q 714 299 710 332 q 726 235 718 265 l 793 260 l 865 140 l 814 96 l 786 82 z "},"'":{"ha":526,"x_min":68,"x_max":592,"o":"m 122 971 l 164 1021 l 592 1021 q 446 756 529 878 q 243 533 363 633 l 104 533 l 68 606 q 172 836 146 717 l 115 860 l 122 971 z "},"(":{"ha":825,"x_min":126,"x_max":618,"o":"m 461 -358 l 389 -378 q 276 -244 325 -319 q 194 -84 228 -169 q 144 94 161 1 q 126 281 126 186 q 148 502 126 390 q 212 720 169 614 q 317 924 254 826 q 461 1106 379 1022 l 614 1033 q 549 895 578 971 q 499 735 519 819 q 469 561 479 651 q 458 381 458 471 q 467 215 458 297 q 497 56 476 132 q 547 -90 517 -21 q 618 -218 576 -160 l 586 -282 l 461 -358 z "},")":{"ha":825,"x_min":126,"x_max":617,"o":"m 319 1088 l 394 1069 q 563 760 510 928 q 617 414 617 592 q 597 196 617 304 q 538 -15 576 88 q 444 -209 500 -117 q 315 -381 388 -301 l 129 -344 l 129 -285 q 190 -148 161 -222 q 240 8 218 -74 q 274 176 261 90 q 286 347 286 263 q 277 513 286 431 q 248 672 268 596 q 198 818 228 749 q 126 946 168 888 l 158 1010 l 319 1088 z "},",":{"ha":526,"x_min":-1,"x_max":524,"o":"m 56 186 l 97 236 l 524 236 q 381 -28 464 97 q 174 -254 299 -154 l 35 -250 l -1 -179 q 103 51 78 -62 l 44 76 l 56 186 z "},"-":{"ha":565,"x_min":21,"x_max":572,"o":"m 572 464 l 518 301 l 469 260 l 21 260 l 72 414 l 115 464 l 572 464 z "},".":{"ha":499,"x_min":6,"x_max":471,"o":"m 22 161 l 64 208 l 272 307 l 471 206 l 454 13 l 404 -31 l 196 -131 l 6 -33 l 22 161 z "},"/":{"ha":674,"x_min":-87,"x_max":778,"o":"m 124 -124 l 76 -164 l -87 -56 l 561 940 l 606 992 l 778 881 l 124 -124 z "},":":{"ha":501,"x_min":7,"x_max":503,"o":"m 54 513 l 96 561 l 304 660 l 503 557 l 488 365 l 438 322 l 336 272 l 472 206 l 456 13 l 406 -31 l 197 -131 l 7 -31 l 24 161 l 65 208 l 164 254 l 36 322 l 54 513 z "},";":{"ha":533,"x_min":-3,"x_max":536,"o":"m 290 236 l 522 236 q 380 -28 463 97 q 172 -254 297 -154 l 33 -250 l -3 -179 q 101 51 76 -62 l 43 76 l 54 186 l 97 236 l 233 236 l 71 322 l 88 513 l 129 561 l 338 660 l 536 557 l 521 365 l 471 322 l 290 236 z "},"=":{"ha":513,"x_min":13,"x_max":526,"o":"m 526 542 l 474 385 l 511 385 l 458 224 l 410 182 l 13 182 l 67 338 l 28 338 l 78 492 l 121 542 l 526 542 z "},"?":{"ha":890,"x_min":100,"x_max":931,"o":"m 489 633 q 459 700 478 674 q 417 742 440 726 q 368 763 394 757 q 315 772 342 769 l 261 601 l 213 560 l 100 560 l 100 915 l 122 965 l 931 965 l 924 857 l 874 815 l 794 794 l 828 614 l 778 571 q 644 498 697 531 q 558 433 590 465 q 513 366 526 401 q 500 288 500 331 q 511 199 500 243 q 541 113 522 156 q 585 28 560 69 q 636 -50 610 -12 l 583 -92 l 228 -92 l 185 -61 q 156 19 169 -28 q 143 126 143 65 q 169 277 143 204 q 240 415 194 350 q 349 536 286 481 q 489 633 413 592 z "},"@":{"ha":1288,"x_min":82,"x_max":1151,"o":"m 1122 632 q 1119 503 1122 565 q 1104 383 1115 442 q 1073 266 1093 324 q 1018 150 1053 208 l 1128 131 l 1151 49 l 926 -282 q 811 -286 865 -286 q 645 -275 731 -286 q 478 -238 560 -264 q 325 -172 397 -212 q 199 -73 253 -132 q 113 65 144 -14 q 82 246 82 144 q 119 553 82 408 q 233 808 157 699 q 426 980 310 917 q 697 1043 542 1043 q 1017 938 913 1043 q 1122 632 1122 833 m 715 42 q 776 46 744 42 q 722 75 753 54 q 675 118 692 96 q 603 89 643 101 q 532 74 564 76 q 618 52 569 60 q 715 42 667 44 z "},"A":{"ha":1317,"x_min":-54,"x_max":1392,"o":"m 647 913 l 690 963 l 1021 993 l 1083 944 q 1081 898 1082 925 q 1081 854 1081 871 q 1097 624 1081 742 q 1149 383 1113 507 q 1245 126 1186 258 q 1392 -146 1304 -6 l 1338 -185 l 1133 -132 l 1097 -169 l 753 -143 l 746 -129 l 692 -167 q 293 -90 551 -92 l 306 -54 l 129 -54 l 165 103 l 179 115 q 174 133 174 121 q 181 160 174 144 q 193 183 189 176 l 300 343 l -37 407 l -54 501 l -11 550 l 319 724 l 289 622 l 679 676 q 692 726 686 701 q 706 776 699 750 l 621 828 l 647 913 m 1136 -76 l 774 35 l 825 -54 l 1136 -76 m 496 110 l 249 110 l 232 43 l 338 35 l 496 110 z "},"B":{"ha":1169,"x_min":-35,"x_max":1146,"o":"m 774 524 q 788 521 782 521 q 808 526 799 521 q 794 563 801 544 q 776 601 786 582 l 774 524 m 426 -75 l 174 181 l 100 99 l -35 425 l 60 542 l 64 589 l 106 639 q 123 642 115 642 q 139 643 131 642 l 63 811 q 53 833 57 822 q 50 853 50 843 q 67 899 50 879 q 121 953 99 939 q 175 968 143 967 l 1076 993 l 1067 863 q 1028 850 1040 857 q 1008 819 1015 843 q 1041 771 1022 796 q 1075 719 1060 746 q 1101 663 1090 692 q 1113 603 1113 633 q 1080 497 1113 550 q 999 407 1047 444 q 1044 364 1019 385 q 1092 317 1069 343 q 1131 259 1115 292 q 1146 181 1146 226 q 1111 51 1146 104 q 1020 -36 1076 -3 q 892 -85 964 -69 q 746 -100 819 -100 q 596 -81 663 -100 q 475 -32 529 -61 l 426 -75 m 424 744 l 492 635 l 497 729 l 424 744 m 750 290 l 735 142 l 853 142 l 750 290 z "},"C":{"ha":1339,"x_min":-67,"x_max":1407,"o":"m 386 151 l 347 88 l -14 35 l -67 107 l 99 381 q 90 415 90 397 q 95 444 90 431 q 107 468 100 457 l 303 765 l 217 783 l 224 881 l 265 929 l 619 960 l 689 899 l 583 751 l 901 990 l 942 953 l 983 1004 l 1338 1033 l 1407 974 l 1219 692 l 1239 692 l 1228 569 l 1178 528 q 886 585 926 528 l 857 557 q 843 544 849 549 q 838 533 838 539 l 999 242 l 1201 400 l 1297 257 l 824 -135 l 800 -94 l 658 -144 l 503 143 l 386 151 m 468 338 l 308 235 l 532 235 l 468 338 z "},"D":{"ha":1433,"x_min":7,"x_max":1503,"o":"m 333 321 l 349 222 l 307 181 l 7 358 l 19 436 l 61 485 l 394 639 l 460 739 l 372 757 l 379 854 l 421 903 l 774 933 l 807 903 l 868 965 l 1235 965 l 1235 851 l 1179 810 l 1125 799 l 1503 483 l 1493 383 l 1444 339 l 867 -143 l 629 -10 l 506 -10 l 535 321 l 333 321 m 732 689 l 657 615 l 826 599 l 732 689 m 967 506 l 953 253 l 1126 347 l 967 506 z "},"E":{"ha":1247,"x_min":-25,"x_max":1290,"o":"m 1290 974 l 1101 692 l 1121 692 l 1110 569 l 1060 528 q 849 544 921 528 l 1075 429 l 1019 383 l 758 264 l 775 257 l 1256 464 l 1229 167 l 1181 124 l 697 -93 l 376 54 l 13 -10 l -25 76 l 104 267 l 115 325 l 111 325 q 37 351 67 325 q 7 415 7 378 q 25 468 7 442 l 221 765 l 135 783 l 142 881 l 183 929 l 582 965 l 835 965 l 865 1004 l 1219 1033 l 1290 974 m 713 915 l 606 915 l 403 650 l 713 915 z "},"F":{"ha":1357,"x_min":-22,"x_max":1454,"o":"m 243 871 q 273 940 243 914 q 367 968 303 965 l 946 993 l 1003 943 l 1381 1036 l 1454 974 l 1267 692 l 1285 692 l 1285 592 l 1150 256 l 1101 214 l 994 214 q 996 242 996 228 q 996 269 996 256 q 993 340 996 308 q 985 388 990 372 l 956 388 l 926 57 l 1025 -49 l 892 -167 q 709 -111 808 -131 q 485 -90 610 -92 l 489 -22 l 543 42 l 467 25 l 492 368 l 283 399 l 289 314 l 239 275 l -22 475 l 35 613 l 315 679 l 254 811 q 246 834 249 822 q 243 871 243 846 z "},"G":{"ha":1415,"x_min":-25,"x_max":1454,"o":"m 1269 697 l 1269 447 l 1238 424 q 1322 262 1279 353 q 1410 57 1364 171 l 1131 -161 l 1131 -292 l 1074 -335 l 986 -367 l 875 -154 l 888 -121 q 803 -57 846 -94 q 719 31 760 -19 q 644 144 679 81 q 583 288 608 208 l 304 288 l 353 160 l 311 118 l -25 318 l -25 393 l 21 442 l 275 576 l 286 564 l 371 694 l 279 714 l 293 811 l 336 860 l 686 889 l 744 838 l 947 990 l 989 953 l 1031 1004 l 1383 1033 l 1454 974 l 1269 697 z "},"H":{"ha":1217,"x_min":-294,"x_max":1267,"o":"m 114 143 l 172 76 l 118 33 l -271 33 l -294 151 l -253 199 l 32 414 l 160 610 l 75 628 l 81 725 l 122 774 l 440 800 l 440 817 q 538 886 479 854 q 664 942 596 918 q 805 978 732 965 q 947 992 878 992 q 1063 979 1006 992 q 1166 946 1121 967 q 1239 897 1211 925 q 1267 836 1267 868 q 1256 798 1267 815 q 1228 766 1244 781 q 1197 739 1213 751 q 1171 718 1181 726 l 1171 624 l 1121 582 l 839 624 q 817 639 826 632 q 801 654 808 646 l 796 588 q 845 592 821 590 q 893 593 869 593 q 1015 585 958 593 q 1114 555 1072 576 q 1180 495 1156 533 q 1204 397 1204 457 q 1192 320 1204 356 q 1154 249 1179 285 q 1119 200 1138 225 q 1085 153 1100 175 q 1060 115 1069 132 q 1050 92 1050 99 q 1064 72 1050 81 q 1114 57 1078 64 l 1106 -82 l 1056 -124 l 775 -90 q 738 -75 751 -87 q 717 -53 725 -62 l 636 -119 l 308 -87 l 308 6 l 356 54 l 424 85 l 436 228 l 114 143 m 865 329 q 838 365 865 351 q 778 382 811 379 l 758 142 q 781 179 764 153 q 817 235 799 206 q 851 291 836 264 q 865 329 865 318 m 328 453 l 463 483 l 481 654 l 328 453 z "},"I":{"ha":697,"x_min":-131,"x_max":707,"o":"m 539 557 l 508 206 l 579 310 l 671 246 l 599 -50 l 550 -92 l 42 -92 l 22 206 l 69 256 l -131 343 l -119 454 l 154 571 l 58 625 l 131 915 l 172 965 l 688 965 l 707 663 l 567 564 l 546 622 l 540 557 l 539 557 z "},"J":{"ha":1028,"x_min":-82,"x_max":1036,"o":"m 224 13 q 399 135 308 67 q 593 310 489 204 q 584 417 586 363 q 582 529 582 471 q 585 656 582 589 q 593 793 588 722 l 493 843 l 506 932 l 547 982 l 881 1015 l 921 976 l 935 939 q 915 740 921 833 q 908 567 908 647 q 915 419 908 494 q 939 274 921 344 q 983 161 954 210 q 1036 76 1011 113 q 814 -178 936 -62 q 554 -365 692 -294 l 385 -182 l 338 -224 l -56 -293 l -82 -200 l 213 103 l 224 13 z "},"K":{"ha":1351,"x_min":-1,"x_max":1388,"o":"m 403 468 l 393 450 l 542 442 q 550 506 549 475 l 492 461 l 403 468 m 563 701 q 556 770 563 756 q 536 785 550 785 q 510 785 515 785 q 490 783 506 785 l 561 651 q 563 668 563 658 q 563 701 563 678 m 1218 331 l 1333 331 l 1300 -50 l 1251 -92 l 1181 -92 l 1164 -108 l 833 -142 l 825 -131 l 785 -167 q 596 -104 682 -118 l 365 -104 l 383 42 l 326 149 l -1 315 l 15 407 l 57 457 l 190 488 l 144 490 l 151 589 l 193 639 l 226 644 l 149 811 q 140 832 142 822 q 138 853 138 842 q 147 892 138 871 q 174 929 157 913 q 213 957 190 946 q 261 968 235 968 l 839 993 l 936 932 l 961 965 l 1388 965 l 1388 874 l 1039 453 q 1101 363 1065 408 q 1174 279 1136 317 l 1218 331 m 1021 747 l 901 856 l 867 525 l 1021 747 m 824 56 l 900 -49 l 1093 -29 q 1028 22 1063 -4 q 961 77 994 49 q 899 134 928 106 q 849 192 869 163 l 824 56 m 563 296 l 364 296 l 489 75 l 547 113 l 563 296 z "},"L":{"ha":1206,"x_min":-204,"x_max":1207,"o":"m 1094 317 l 1050 314 q 1067 241 1056 282 q 1098 152 1079 200 q 1144 53 1117 104 q 1207 -50 1171 1 l 1154 -92 l 397 -92 l 415 35 l 460 85 l 482 338 l 107 396 l 107 328 l 57 290 l -204 497 l -169 579 l -126 629 l 133 665 l 68 804 q 56 847 56 829 q 67 888 56 868 q 97 924 79 908 q 138 951 115 940 q 182 961 161 961 l 950 982 q 951 899 950 935 q 957 818 951 863 l 907 776 l 849 772 l 821 465 l 1114 488 q 1130 432 1122 463 q 1143 358 1138 401 l 1094 317 m 390 783 l 525 574 l 540 792 l 390 783 z "},"M":{"ha":2032,"x_min":22,"x_max":2022,"o":"m 1508 1015 l 1542 985 l 1967 1014 l 2019 964 q 2022 912 2021 943 q 2022 857 2022 881 q 2013 607 2022 732 q 1988 357 2003 482 q 1956 106 1974 232 q 1922 -146 1939 -19 l 1874 -185 q 1673 -104 1774 -139 q 1464 -47 1572 -69 l 1507 71 l 1550 119 q 1592 113 1574 117 q 1624 108 1611 110 q 1651 321 1639 214 q 1671 540 1663 428 q 1507 251 1600 424 q 1292 -157 1414 79 l 1243 -197 l 1163 -172 q 1210 244 1192 71 q 1238 529 1229 417 q 1138 324 1192 442 q 1021 54 1083 206 l 1115 -49 l 981 -168 q 579 -92 818 -92 l 583 25 l 625 74 q 660 85 644 79 q 689 94 676 90 l 717 392 l 333 435 l 347 349 l 296 311 l 22 501 l 49 576 l 92 626 l 381 699 l 322 822 q 313 844 315 835 q 311 864 311 854 q 323 903 311 883 q 353 940 335 924 q 393 967 371 956 q 435 979 415 978 l 1039 1014 l 1076 979 l 1508 1015 m 664 804 l 750 650 l 758 801 l 664 804 m 1274 949 l 1086 929 l 1044 501 l 1274 949 m 1721 944 l 1574 935 l 1538 624 l 1721 944 z "},"N":{"ha":1490,"x_min":-4,"x_max":1467,"o":"m 1025 107 q 1106 368 1079 235 q 1144 647 1133 501 q 964 315 1061 531 l 946 118 q 1025 107 1010 107 m 554 90 q 590 92 578 90 q 614 104 603 94 l 639 371 l 317 400 l 321 349 l 272 310 l -4 464 l 21 558 l 63 608 l 340 646 l 272 797 q 263 819 265 810 q 260 839 260 829 q 272 878 260 858 q 302 914 283 897 q 342 942 321 931 q 383 954 364 953 l 961 993 l 992 965 l 1404 993 l 1460 944 q 1465 858 1463 906 q 1467 772 1467 811 q 1423 320 1467 547 q 1299 -143 1379 93 l 1251 -183 q 1003 -81 1142 -119 l 906 -168 q 731 -115 831 -133 q 500 -90 631 -96 l 511 40 l 554 90 m 569 835 l 699 589 l 717 589 l 717 842 l 569 835 m 1129 915 l 1010 915 l 968 644 l 1129 915 z "},"O":{"ha":1393,"x_min":-1,"x_max":1389,"o":"m 1035 113 q 996 219 1014 165 q 965 335 978 274 l 946 107 q 955 106 949 106 q 981 106 961 106 q 1035 113 1004 106 m 1367 744 q 1290 685 1315 729 q 1265 579 1265 642 q 1271 497 1265 539 q 1287 412 1276 454 q 1312 329 1297 369 q 1344 256 1326 289 q 1365 202 1358 231 q 1371 144 1371 174 q 1337 17 1371 68 q 1249 -66 1303 -35 q 1129 -110 1196 -97 q 996 -124 1063 -124 q 860 -112 926 -124 q 738 -81 794 -100 q 635 -40 681 -62 q 564 4 590 -18 q 565 39 564 25 q 569 63 567 53 q 574 84 571 74 q 579 108 576 94 l 619 147 l 639 360 l 293 411 l 293 347 l 244 310 l -1 503 l 32 579 l 76 629 l 329 669 l 264 811 q 255 833 258 824 q 251 853 251 842 q 263 894 251 874 q 293 931 275 914 q 333 958 311 947 q 378 968 356 968 l 1389 993 l 1367 744 m 667 796 l 588 801 l 686 610 l 667 796 z "},"P":{"ha":1447,"x_min":-8,"x_max":1610,"o":"m 513 19 q 574 41 546 28 q 619 78 601 54 l 646 365 l 303 413 l 326 321 l 274 285 l -8 482 l 7 563 l 49 613 l 333 675 l 271 811 q 262 833 265 824 q 258 853 258 842 q 288 931 258 896 q 382 968 318 967 l 968 993 l 1022 946 q 1074 970 1047 958 q 1127 990 1101 982 q 1175 1004 1153 999 q 1211 1010 1197 1010 q 1226 1009 1218 1010 q 1244 1003 1233 1008 l 1354 947 q 1303 918 1324 929 q 1269 898 1283 907 q 1245 881 1256 889 q 1224 861 1235 872 q 1248 808 1224 835 q 1308 761 1272 782 q 1382 727 1343 740 q 1449 714 1421 714 l 1610 714 q 1450 597 1526 653 q 1297 488 1374 542 q 1139 378 1219 433 q 967 264 1058 324 l 949 57 l 1047 -49 l 914 -168 q 507 -90 743 -92 l 513 19 m 610 761 l 689 636 l 679 776 l 610 761 m 969 482 l 1097 558 q 989 618 1024 568 l 969 482 z "},"Q":{"ha":1431,"x_min":11,"x_max":1461,"o":"m 1376 710 q 1330 697 1347 710 q 1303 664 1313 683 q 1290 622 1293 644 q 1286 578 1286 599 q 1307 412 1286 497 q 1364 256 1328 326 q 1390 144 1390 203 q 1387 108 1390 126 q 1380 74 1383 90 q 1373 45 1376 58 q 1369 26 1369 32 l 1369 22 l 1461 -65 l 1176 -403 q 1125 -332 1153 -369 q 1068 -257 1097 -294 q 1012 -185 1039 -219 q 963 -121 985 -150 q 842 -106 900 -118 q 735 -74 785 -93 q 647 -35 686 -56 q 583 6 608 -14 q 585 40 583 26 q 590 63 588 53 q 594 84 592 74 q 599 108 597 94 l 639 147 l 660 371 l 317 407 l 343 293 l 292 256 l 11 468 l 36 539 l 79 589 l 338 667 l 278 797 q 267 839 267 819 q 278 880 267 860 q 307 916 289 900 q 347 942 325 932 q 392 954 369 953 l 1408 994 l 1376 710 m 1053 119 q 1015 224 1032 171 q 985 332 999 276 l 965 107 q 981 106 969 106 l 1000 106 q 1056 113 1024 106 q 1054 117 1056 115 q 1053 119 1053 118 m 599 792 l 693 619 l 700 801 l 599 792 z "},"R":{"ha":1313,"x_min":-182,"x_max":1399,"o":"m 1149 331 l 1268 331 l 1235 -50 l 1186 -92 l 890 -92 l 751 140 l 746 57 l 843 -49 l 710 -167 q 527 -111 626 -131 q 303 -90 428 -92 l 307 -22 l 383 69 q 417 78 401 69 l 444 372 l 146 406 l 169 333 l 118 296 l -182 467 l -167 556 l -125 604 l 118 688 l 63 811 q 53 833 57 822 q 50 853 50 843 q 58 892 50 871 q 83 929 67 913 q 122 957 99 946 q 174 968 144 968 l 765 993 l 817 946 q 922 992 868 974 q 1007 1010 975 1010 q 1022 1009 1013 1010 q 1040 1003 1031 1008 l 1157 946 l 1010 857 q 1040 805 1011 831 q 1110 759 1069 779 q 1196 726 1151 739 q 1272 714 1240 714 l 1399 714 q 1308 638 1351 672 q 1219 569 1265 603 q 1120 498 1174 535 q 999 415 1067 461 l 1094 257 l 1149 331 m 468 800 l 376 804 l 472 631 l 468 800 m 772 468 l 904 551 q 783 613 821 571 l 772 468 z "},"S":{"ha":1390,"x_min":7,"x_max":1488,"o":"m 1050 246 q 1049 297 1050 278 q 1043 340 1047 317 l 964 340 l 1050 246 m 960 606 q 963 626 960 619 q 971 640 965 632 l 1047 758 q 1007 746 1025 751 q 976 724 989 740 l 907 572 l 978 572 q 960 606 960 585 m 1363 215 q 1355 119 1363 163 q 1333 40 1347 76 q 1296 -29 1318 3 q 1244 -92 1274 -61 l 904 -92 l 889 -75 l 636 -75 l 629 -89 l 507 -89 l 546 351 l 569 375 l 556 389 l 304 424 l 324 328 l 272 292 l 7 501 l 25 581 l 67 631 l 278 686 l 222 808 q 213 831 217 821 q 208 851 208 842 q 220 892 208 872 q 251 929 232 913 q 292 956 269 946 q 336 965 315 965 l 1032 965 l 1063 1004 l 1417 1033 l 1488 974 l 1299 692 l 1318 692 l 1307 569 l 1285 554 q 1342 370 1322 454 q 1363 215 1363 286 m 560 775 l 635 646 l 679 775 l 560 775 m 760 151 l 729 11 l 883 11 l 760 151 z "},"T":{"ha":1357,"x_min":-10,"x_max":1428,"o":"m 350 785 l 599 1014 l 814 901 l 1071 1035 l 1061 928 l 1244 1015 l 1428 824 l 1286 668 l 1315 671 l 1347 578 l 1011 349 l 986 57 l 1083 -49 l 950 -168 q 594 -92 788 -92 q 161 -10 161 -92 q 163 8 161 1 q 168 17 165 14 l 299 221 l 214 239 l 221 336 l 275 386 l -10 481 l 99 669 l 397 558 l 453 644 l 350 785 m 706 88 l 728 379 l 494 88 l 706 88 z "},"U":{"ha":1339,"x_min":29,"x_max":1396,"o":"m 1226 158 l 1263 158 q 1265 97 1263 121 q 1271 51 1267 72 q 1046 -78 1168 -32 q 764 -124 924 -124 q 650 -116 704 -124 q 555 -87 596 -108 q 490 -30 514 -67 q 465 65 465 7 q 478 143 465 103 q 514 215 490 183 q 551 281 533 244 q 582 352 568 318 q 603 411 596 386 q 611 440 611 436 l 346 483 l 358 397 l 307 358 l 29 567 l 71 640 l 114 689 l 336 738 l 274 872 q 265 893 268 883 q 263 914 263 903 q 275 958 263 938 q 306 994 288 978 q 349 1019 325 1010 q 394 1029 372 1028 l 938 963 q 955 935 947 949 q 969 908 963 922 l 1063 993 l 1396 961 l 1390 861 q 1385 859 1388 861 q 1372 850 1382 857 q 1340 830 1361 843 q 1281 792 1318 817 l 1226 158 m 599 840 l 664 718 q 666 733 665 725 q 667 747 667 740 q 621 838 667 801 l 599 840 m 892 106 l 914 357 q 859 251 885 307 q 810 156 833 194 q 804 138 804 146 q 831 113 804 121 q 886 106 857 106 l 892 106 z "},"V":{"ha":1374,"x_min":18,"x_max":1386,"o":"m 269 849 q 280 886 269 865 q 308 924 290 907 q 348 954 325 942 q 396 967 371 967 q 428 966 410 967 q 493 965 446 965 q 956 1043 825 965 l 1046 967 l 1017 931 l 1332 1039 q 1373 918 1360 976 q 1386 801 1386 860 q 1362 594 1386 701 q 1299 378 1338 486 q 1210 163 1260 269 q 1113 -40 1161 57 l 1011 -121 l 686 -89 l 669 -1 l 710 47 q 738 62 725 54 q 761 75 750 69 q 747 225 754 154 q 729 363 739 296 l 335 424 l 347 340 l 296 303 l 18 489 l 53 579 l 96 629 l 344 675 l 282 810 q 273 831 276 821 q 269 849 269 840 m 1047 568 q 979 786 1047 685 q 1010 637 994 715 q 1040 471 1026 558 q 1044 506 1043 493 q 1047 530 1046 519 q 1047 549 1047 540 q 1047 568 1047 557 m 653 806 l 599 800 l 721 586 l 653 806 z "},"W":{"ha":1721,"x_min":36,"x_max":1821,"o":"m 1340 376 q 1292 263 1318 317 q 1235 156 1265 208 q 1229 138 1229 146 q 1256 113 1229 121 q 1317 106 1283 106 l 1340 376 m 1074 674 q 1065 739 1074 710 q 1035 786 1056 768 q 997 538 1035 663 q 904 296 958 414 q 872 230 886 256 q 847 187 857 204 q 833 158 838 169 q 828 136 828 146 q 849 114 828 121 q 894 106 869 107 q 910 163 900 135 q 940 215 921 190 q 994 312 969 256 q 1036 430 1018 368 q 1064 556 1054 492 q 1074 674 1074 619 m 1817 861 q 1758 830 1789 851 q 1707 792 1726 808 l 1651 158 l 1688 158 l 1694 53 q 1603 -15 1657 17 q 1485 -71 1550 -47 q 1347 -109 1421 -94 q 1192 -124 1272 -124 q 992 -96 1092 -124 q 891 -115 944 -108 q 779 -122 838 -122 q 670 -115 722 -122 q 578 -86 618 -107 q 513 -28 538 -65 q 489 65 489 8 q 499 132 489 101 q 529 201 510 163 q 577 293 549 239 q 642 431 606 347 l 338 465 l 336 408 l 293 367 l 36 531 l 61 611 l 104 661 l 368 706 l 306 839 q 293 881 293 865 q 302 922 293 901 q 328 958 311 942 q 367 985 344 975 q 418 994 390 994 l 967 982 q 986 953 976 968 q 1003 922 996 938 l 1049 997 l 1343 963 q 1385 886 1369 928 l 1489 993 l 1821 961 l 1817 861 m 635 822 l 725 650 q 729 717 729 688 q 707 813 729 782 l 635 822 z "},"X":{"ha":1474,"x_min":47,"x_max":1564,"o":"m 1147 272 q 1119 299 1147 290 q 1061 307 1092 307 l 1046 146 q 1076 178 1058 160 q 1110 213 1094 196 q 1136 246 1125 231 q 1147 272 1147 261 m 1115 739 q 1091 707 1108 728 q 1056 663 1074 686 q 1024 618 1038 640 q 1011 579 1011 596 q 1037 556 1011 564 q 1093 549 1063 549 l 1099 549 l 1115 739 m 1231 993 l 1564 961 l 1558 861 q 1513 840 1531 849 q 1483 822 1494 831 q 1463 807 1471 814 q 1449 792 1456 800 l 1432 600 l 1469 600 l 1469 489 q 1458 476 1467 482 q 1442 467 1450 471 q 1478 408 1468 440 q 1488 338 1488 376 q 1466 252 1488 294 q 1419 174 1444 210 q 1373 115 1394 139 q 1351 83 1351 90 q 1400 65 1351 69 l 1396 -76 l 1346 -118 l 1069 -83 q 1028 -71 1046 -81 q 999 -50 1011 -61 l 925 -112 l 597 -79 l 597 13 l 643 61 q 681 78 664 72 q 711 90 699 85 l 726 254 l 688 254 l 688 358 l 717 388 l 697 411 l 336 469 l 344 390 l 293 353 l 47 540 l 68 622 l 110 672 l 354 719 l 289 853 q 282 872 285 863 q 279 893 279 882 q 290 939 279 917 q 319 978 301 961 q 361 1006 338 996 q 410 1017 385 1017 q 419 1017 414 1017 q 428 1015 424 1017 l 1099 946 q 1127 933 1115 943 q 1146 917 1139 924 l 1231 993 m 628 829 l 718 653 q 732 687 721 671 q 760 722 743 703 q 799 763 776 740 q 847 815 821 786 l 628 829 z "},"Y":{"ha":1425,"x_min":49,"x_max":1521,"o":"m 1515 861 q 1474 840 1490 849 q 1444 823 1457 831 q 1423 808 1432 815 q 1406 792 1414 801 l 1351 167 l 1389 167 l 1389 57 q 1283 -13 1342 18 q 1159 -67 1224 -44 q 1026 -103 1094 -90 q 889 -115 957 -115 q 783 -108 839 -115 q 678 -83 726 -101 q 599 -31 631 -64 q 568 56 568 3 q 590 146 568 106 q 660 218 611 186 l 671 343 q 660 351 667 347 q 647 365 654 356 q 634 393 640 375 q 626 443 628 411 l 339 481 l 347 414 l 296 376 l 49 554 l 67 632 l 108 682 l 338 735 l 275 871 q 264 913 264 890 q 297 997 264 957 q 397 1044 329 1038 l 1051 964 q 1110 924 1090 946 l 1188 993 l 1521 961 l 1515 861 m 611 858 l 693 676 l 790 831 l 611 858 m 964 540 q 989 506 964 518 q 1050 489 1014 494 l 1071 725 q 1031 658 1054 694 q 979 575 1008 622 q 969 560 975 568 q 964 540 964 551 m 1029 247 q 1006 214 1021 231 q 974 181 990 197 q 944 151 958 165 q 925 124 931 136 q 956 115 932 118 q 1017 111 979 111 l 1029 247 z "},"Z":{"ha":1364,"x_min":24,"x_max":1421,"o":"m 813 569 q 901 611 861 593 q 975 643 942 629 q 756 764 901 764 q 732 763 744 764 q 707 761 719 763 l 813 569 m 1318 614 q 1117 512 1207 560 q 963 419 1026 464 q 864 329 899 374 q 829 235 829 285 q 867 142 829 185 l 1132 401 l 1339 401 l 1299 -47 l 1250 -89 l 1129 -89 l 1092 122 l 857 -92 l 519 -92 q 458 118 458 24 q 470 203 458 163 q 499 279 482 244 q 534 341 515 314 q 567 385 553 368 l 358 407 l 307 349 l 24 483 l 118 625 l 435 657 l 365 807 q 356 828 358 818 q 354 849 354 838 q 368 896 354 875 q 401 932 382 917 q 442 956 421 947 q 481 964 464 964 l 1421 965 l 1413 857 l 1363 815 l 1285 794 l 1318 614 z "},"`":{"ha":568,"x_min":-7,"x_max":508,"o":"m 131 1203 l 508 1054 l 442 924 l -7 924 l 61 1024 l 22 1039 l 131 1203 z "},"a":{"ha":913,"x_min":-110,"x_max":989,"o":"m 679 921 q 678 903 678 911 q 678 888 678 894 q 693 640 678 763 q 744 392 708 518 q 840 132 781 265 q 989 -146 900 -1 l 933 -185 l 426 -53 l 289 -167 q -110 -90 147 -92 l -76 13 l -33 63 q 58 94 25 76 q 194 426 135 258 q 301 776 254 594 l 218 828 l 244 913 l 288 963 l 618 993 l 679 921 z "},"b":{"ha":826,"x_min":28,"x_max":803,"o":"m 724 863 q 686 844 700 854 q 672 819 672 835 q 682 793 672 807 q 708 753 693 775 q 737 706 724 731 q 760 654 750 681 q 769 603 769 628 q 737 497 769 550 q 656 407 704 444 q 669 394 661 400 q 683 382 676 389 q 718 353 697 371 q 758 311 739 336 q 790 253 776 286 q 803 181 803 221 q 763 52 803 106 q 665 -35 724 -1 q 535 -85 606 -69 q 403 -100 465 -100 q 294 -90 344 -100 q 199 -64 243 -81 q 120 -26 156 -47 q 57 18 85 -4 l 124 772 l 28 822 l 28 913 l 75 993 l 732 993 l 724 863 m 460 139 q 453 159 460 150 q 438 177 447 168 q 419 194 429 186 q 403 213 410 203 l 397 121 q 435 119 404 119 q 460 139 460 119 m 431 524 l 435 524 q 449 546 449 524 q 445 576 449 558 q 433 619 442 594 l 431 524 z "},"c":{"ha":864,"x_min":28,"x_max":932,"o":"m 703 528 q 411 585 449 528 l 381 557 q 363 533 363 543 l 524 242 l 726 400 l 822 257 l 772 213 l 349 -135 l 54 381 q 37 408 46 396 q 28 439 28 421 q 46 492 28 465 q 90 544 64 519 q 144 592 117 569 q 193 632 172 615 l 101 599 l 53 693 l 93 740 l 425 990 l 467 953 l 508 1004 l 861 1033 l 932 974 l 744 692 l 764 692 l 751 569 l 703 528 z "},"d":{"ha":842,"x_min":6,"x_max":911,"o":"m 364 489 l 342 226 l 389 186 l 549 318 l 364 489 m 643 965 l 643 851 l 533 799 l 911 483 l 903 383 l 275 -143 l 21 1 l 60 454 l 6 479 l 32 568 l 76 618 l 224 618 l 74 756 l 276 965 l 643 965 z "},"e":{"ha":919,"x_min":7,"x_max":963,"o":"m 963 974 l 774 692 l 794 692 l 782 569 l 732 528 q 612 532 664 528 q 522 543 560 536 l 746 429 l 690 383 l 431 264 l 447 257 l 928 464 l 903 167 l 853 124 l 369 -93 l 64 42 q 19 86 31 57 q 7 143 7 115 q 44 239 7 190 q 142 315 81 288 l 189 338 l 93 386 q 65 415 71 397 q 58 446 58 432 q 81 499 58 476 l 225 633 l 132 599 l 82 693 l 122 740 l 456 990 l 496 953 l 538 1004 l 892 1033 l 963 974 z "},"f":{"ha":832,"x_min":-14,"x_max":929,"o":"m 651 256 l 603 214 l 496 214 q 492 335 497 299 q 482 388 488 372 l 457 388 l 428 57 l 526 -49 l 393 -167 q 210 -111 310 -131 q -14 -90 111 -92 l -8 11 l 33 58 q 70 69 54 65 q 99 78 86 74 l 161 772 l 65 822 l 65 911 l 113 961 l 446 994 l 503 944 l 856 1038 l 929 974 l 742 692 l 761 692 l 750 592 l 786 592 l 651 256 z "},"g":{"ha":888,"x_min":10,"x_max":926,"o":"m 750 697 l 742 447 l 710 424 q 882 57 792 288 l 603 -161 l 603 -292 l 546 -335 l 458 -367 l 347 -154 l 360 -121 q 241 -26 294 -78 q 144 94 188 25 q 68 255 101 164 q 10 467 35 346 l 185 631 l 97 599 l 47 693 l 88 740 l 421 990 l 461 953 l 503 1004 l 857 1033 l 926 974 l 750 697 z "},"h":{"ha":911,"x_min":3,"x_max":961,"o":"m 560 329 q 533 365 560 351 q 472 382 506 379 l 453 142 q 483 190 465 163 q 518 245 501 218 q 547 295 535 272 q 560 329 560 318 m 815 582 q 645 603 707 592 q 551 624 583 614 q 510 642 519 633 q 496 654 500 650 l 490 588 q 540 592 515 590 q 588 593 564 593 q 710 585 653 593 q 808 555 767 576 q 874 495 850 533 q 899 397 899 457 q 887 329 899 361 q 856 265 875 297 q 815 201 838 233 q 768 132 792 168 q 750 92 750 103 q 764 71 750 78 q 808 57 778 64 l 800 -82 l 750 -124 l 469 -90 q 433 -75 446 -87 q 411 -53 419 -62 l 331 -119 l 3 -87 l 3 6 l 118 85 l 172 707 l 135 707 l 135 811 q 235 887 178 853 q 357 944 292 921 q 494 979 422 967 q 642 992 567 992 q 758 979 700 992 q 860 946 815 967 q 933 897 906 925 q 961 836 961 868 q 949 798 961 815 q 920 766 936 781 q 888 740 904 751 q 864 718 872 728 l 864 624 l 815 582 m 507 761 l 503 725 l 536 763 l 507 761 z "},"i":{"ha":483,"x_min":-47,"x_max":532,"o":"m 438 529 l 396 57 l 493 -49 l 360 -167 q 177 -111 276 -131 q -47 -90 78 -92 l -40 11 q 3 46 -14 33 q 33 65 21 58 q 52 73 44 71 q 67 78 60 75 l 103 493 l 56 563 l 82 839 l 124 888 l 332 986 l 532 883 l 508 600 l 438 529 z "},"j":{"ha":619,"x_min":-228,"x_max":628,"o":"m 490 529 l 467 257 l 628 74 q 146 -365 424 -217 l -25 -176 l -147 -210 l -228 -137 q 117 150 -12 25 l 157 493 l 110 563 l 136 839 l 178 888 l 385 986 l 585 883 l 561 600 l 490 529 z "},"k":{"ha":953,"x_min":-21,"x_max":990,"o":"m 521 915 l 563 965 l 990 965 l 990 874 l 640 451 q 699 363 664 410 q 776 281 735 315 l 819 331 l 935 331 l 903 -50 l 853 -92 l 678 -92 q 540 9 597 -40 q 431 117 482 58 q 426 86 428 101 q 424 56 425 71 l 519 -49 l 386 -167 q 203 -111 303 -131 q -21 -90 104 -92 l -14 11 l 28 58 l 94 79 q 146 461 128 308 q 164 701 164 614 q 158 771 164 743 l 58 822 l 58 911 l 106 961 l 440 994 l 489 950 q 506 843 506 910 q 501 730 506 797 q 488 569 496 663 l 626 760 l 514 828 l 521 915 z "},"l":{"ha":861,"x_min":54,"x_max":863,"o":"m 782 454 q 790 422 786 444 q 800 358 794 400 l 750 317 l 707 314 q 723 241 711 282 q 754 152 735 200 q 801 53 774 104 q 863 -50 828 1 l 811 -92 l 54 -92 l 72 35 l 117 85 l 176 772 l 81 822 l 81 914 l 128 964 l 607 982 q 608 899 607 935 q 614 818 608 863 l 564 776 l 506 772 l 479 465 l 735 485 l 782 454 z "},"m":{"ha":1460,"x_min":3,"x_max":1449,"o":"m 1435 976 q 1445 867 1442 921 q 1449 760 1449 814 q 1440 574 1449 669 q 1419 370 1432 479 q 1388 134 1406 261 q 1350 -146 1369 7 l 1301 -185 q 1102 -104 1204 -139 q 892 -47 1000 -69 l 935 71 l 978 119 q 1020 113 1001 117 q 1053 108 1039 110 q 1083 354 1071 247 q 1100 540 1094 461 q 935 251 1029 424 q 719 -157 842 79 l 671 -197 l 590 -172 q 639 244 619 71 q 665 529 658 417 q 565 324 619 442 q 449 54 511 206 l 543 -49 l 410 -167 q 227 -111 326 -131 q 3 -90 128 -92 l 10 11 l 51 58 q 88 69 72 65 q 117 78 103 74 l 181 793 l 81 843 l 93 932 l 135 982 l 468 1015 l 524 961 l 492 606 q 606 807 544 710 q 747 993 668 904 l 936 1015 l 990 965 q 994 906 993 935 q 996 847 996 878 q 994 790 996 819 q 990 728 993 760 q 1078 862 1033 796 q 1183 993 1124 928 l 1394 1014 l 1435 976 l 1435 976 z "},"n":{"ha":1021,"x_min":10,"x_max":979,"o":"m 956 957 q 974 847 968 903 q 979 732 979 790 q 967 535 979 635 q 939 338 954 436 q 889 108 921 224 q 810 -143 857 -8 l 761 -183 q 511 -81 656 -121 l 417 -167 q 234 -111 333 -131 q 10 -90 135 -92 l 15 11 l 57 58 q 94 69 78 65 q 122 78 110 74 q 163 544 149 371 q 179 775 178 717 l 89 822 l 89 911 l 136 961 l 469 994 l 531 942 l 513 763 q 607 878 557 825 q 707 974 657 932 l 914 993 l 956 957 m 533 107 q 614 369 586 229 q 654 646 642 508 q 567 506 611 588 q 474 315 522 424 l 457 118 q 533 107 517 107 z "},"o":{"ha":864,"x_min":35,"x_max":860,"o":"m 507 113 q 497 144 507 115 q 476 208 488 172 q 452 281 464 244 q 436 333 440 317 l 418 107 q 447 101 428 101 q 479 105 463 101 q 507 113 496 108 m 838 744 q 761 689 786 736 q 736 579 736 642 q 742 497 736 540 q 758 412 747 454 q 783 329 768 369 q 815 256 797 289 q 842 144 842 203 q 808 18 842 69 q 720 -65 774 -33 q 600 -110 667 -96 q 468 -124 533 -124 q 332 -112 399 -124 q 208 -81 265 -100 q 106 -40 151 -62 q 35 4 61 -18 l 51 108 l 92 151 q 127 567 115 413 q 140 775 139 722 l 50 822 l 50 914 l 97 990 l 860 990 l 838 744 z "},"p":{"ha":911,"x_min":-29,"x_max":1033,"o":"m 451 490 l 549 558 q 461 594 501 572 l 451 490 m 1033 700 q 886 584 958 639 q 741 476 814 529 q 592 371 668 424 q 431 264 515 318 l 414 57 l 511 -49 l 379 -168 q -29 -90 208 -92 l -22 11 l 19 58 q 56 69 40 65 q 85 78 72 74 q 108 334 99 226 q 124 516 118 442 q 134 637 131 590 q 140 710 138 683 q 142 750 142 738 q 143 769 143 763 l 146 772 l 51 822 l 51 911 l 97 961 l 432 994 l 488 946 q 539 970 511 958 q 592 990 567 982 q 640 1004 618 999 q 676 1010 663 1010 q 685 1009 681 1010 q 705 1002 690 1008 q 746 983 719 996 q 818 947 772 971 q 719 915 751 933 q 688 861 688 897 q 713 805 688 835 q 783 751 738 775 q 892 711 828 726 q 1033 700 956 696 z "},"q":{"ha":874,"x_min":26,"x_max":903,"o":"m 829 744 q 787 723 806 740 q 756 681 768 706 q 736 630 743 657 q 729 578 729 603 q 751 413 729 499 q 807 256 772 326 q 826 202 819 229 q 833 144 833 175 q 804 28 833 79 l 903 -65 l 619 -403 q 567 -332 596 -369 q 510 -258 539 -294 q 453 -185 481 -221 q 404 -121 426 -150 q 285 -106 343 -118 q 178 -74 228 -93 q 90 -35 129 -56 q 26 6 51 -14 l 42 108 l 81 147 l 136 772 l 40 822 l 40 914 l 88 997 l 851 997 l 829 744 m 497 113 q 489 142 497 117 q 469 200 481 167 q 445 269 457 233 q 426 329 433 304 l 408 107 q 424 106 413 106 q 467 108 451 106 q 497 113 482 110 z "},"r":{"ha":972,"x_min":-36,"x_max":1038,"o":"m 443 488 l 563 563 q 506 581 533 571 q 453 600 479 590 l 443 488 m 447 -126 l 371 -167 q 188 -111 288 -131 q -36 -90 89 -92 l -31 11 l 11 58 q 49 69 32 65 q 76 78 65 74 l 136 768 l 43 822 l 43 911 l 90 961 l 424 994 l 478 946 q 530 972 503 960 q 583 992 557 983 q 630 1005 608 1000 q 667 1010 651 1010 q 682 1009 674 1010 q 701 1003 690 1008 l 815 946 q 707 906 744 935 q 669 857 669 876 q 697 802 669 831 q 774 751 725 774 q 891 713 824 728 q 1038 699 958 699 l 660 415 l 754 257 l 810 331 l 928 331 l 896 -50 l 846 -92 l 551 -92 l 413 140 l 406 57 l 504 -49 l 447 -126 z "},"s":{"ha":863,"x_min":-21,"x_max":960,"o":"m 524 244 q 515 340 524 292 l 436 340 l 524 244 m 381 572 l 450 572 q 432 606 432 585 q 435 625 432 619 q 444 640 438 631 l 511 746 q 476 732 493 739 q 446 715 460 725 l 381 572 m 960 974 l 772 692 l 792 692 l 779 569 l 750 549 q 817 369 797 451 q 838 213 838 288 q 832 146 838 179 q 813 76 826 113 q 776 -2 800 39 q 717 -92 753 -43 l 378 -92 l 203 99 l 150 -47 l 101 -89 l -21 -89 l 18 351 l 43 375 l 15 404 l 149 783 l 25 817 l 32 915 l 74 965 l 504 965 l 533 994 l 535 1004 l 889 1033 l 960 974 z "},"t":{"ha":1033,"x_min":28,"x_max":1106,"o":"m 628 -167 q 445 -111 544 -131 q 221 -90 346 -92 l 228 11 q 292 59 263 44 q 335 78 321 74 l 358 322 l 65 539 l 131 644 l 28 785 l 276 1014 l 490 901 l 749 1035 l 739 928 l 922 1015 l 1106 824 l 964 668 l 992 671 l 1025 578 l 689 349 l 664 57 l 761 -49 l 628 -167 z "},"u":{"ha":826,"x_min":-15,"x_max":915,"o":"m 431 364 q 392 275 410 313 q 360 210 375 238 q 338 176 353 196 q 324 138 324 156 q 351 113 324 121 q 411 106 378 106 l 431 364 m 800 790 l 746 158 l 782 158 q 782 113 782 131 q 783 85 782 96 q 785 66 783 74 q 790 51 788 58 q 569 -77 690 -31 q 283 -124 449 -124 q 169 -116 224 -124 q 74 -87 115 -108 q 9 -30 33 -67 q -15 65 -15 7 q -6 129 -15 100 q 19 185 4 158 q 51 240 33 213 q 83 297 68 267 q 124 394 106 343 q 156 497 143 444 q 175 602 168 550 q 182 701 182 654 q 163 783 182 750 q 107 822 144 815 l 119 947 l 163 997 l 457 963 q 475 935 467 947 q 489 908 483 924 l 582 993 l 915 961 l 915 861 l 800 790 z "},"v":{"ha":896,"x_min":26,"x_max":908,"o":"m 568 572 q 501 788 568 689 q 533 638 518 717 q 563 471 549 558 q 567 507 565 485 q 568 572 568 529 m 26 914 l 68 956 l 67 964 q 295 983 193 964 q 481 1042 397 1001 l 568 967 l 539 931 l 856 1040 q 894 915 881 974 q 908 796 908 856 q 885 589 908 694 q 822 377 861 483 q 734 166 783 271 q 635 -39 685 61 l 533 -121 l 208 -89 l 192 -1 q 229 34 214 21 q 255 56 244 47 q 272 68 265 64 q 283 75 278 72 q 234 461 265 290 q 156 763 203 632 q 46 811 153 782 l 26 914 z "},"w":{"ha":1208,"x_min":-24,"x_max":1310,"o":"m 818 261 l 829 374 q 780 260 807 315 q 724 156 753 206 q 718 138 718 146 q 745 113 718 121 q 806 106 772 106 l 818 261 m 561 674 q 533 778 561 742 q 517 635 533 711 q 474 480 501 558 q 410 324 446 401 q 333 176 374 247 q 322 158 328 167 q 315 135 315 149 q 336 113 315 119 q 382 106 357 107 q 398 163 388 135 q 428 215 408 190 q 482 312 457 256 q 524 431 507 368 q 551 556 542 493 q 561 674 561 619 m 832 963 q 874 885 857 928 l 976 993 l 1310 961 l 1310 861 l 1194 790 l 1144 238 l 1140 158 l 1176 158 l 1183 53 q 1074 -18 1133 14 q 949 -74 1014 -50 q 816 -110 885 -97 q 681 -124 747 -124 q 481 -96 581 -124 q 379 -115 432 -108 q 268 -122 326 -122 q 158 -115 211 -122 q 65 -86 106 -107 q 1 -28 25 -65 q -24 65 -24 8 q -10 143 -24 103 q 28 217 3 183 l 26 215 q 86 322 57 260 q 138 451 115 383 q 173 585 160 518 q 186 707 186 653 q 170 776 186 749 q 117 811 154 803 l 131 947 l 172 997 l 468 963 q 490 925 478 949 l 536 997 l 832 963 z "},"x":{"ha":842,"x_min":-35,"x_max":932,"o":"m 599 993 l 932 961 l 926 861 q 858 824 885 843 q 817 792 831 804 l 800 600 l 838 600 l 838 489 l 811 468 q 844 408 833 438 q 856 343 856 379 q 843 272 856 307 q 812 206 831 238 q 772 149 793 175 q 731 101 750 122 q 721 83 721 92 q 735 69 721 71 q 768 65 750 68 l 764 -76 l 714 -118 l 440 -83 q 397 -70 414 -81 q 368 -50 379 -60 l 293 -112 l -35 -79 l -35 13 l 78 93 l 94 254 l 56 254 l 56 358 l 85 388 q 49 446 60 419 q 39 508 39 472 q 53 584 39 547 q 93 658 68 621 q 150 735 118 696 q 218 815 182 774 q 201 819 211 818 q 181 821 192 821 q 156 819 169 821 q 129 815 143 818 l 133 949 l 175 999 l 463 964 q 519 922 499 947 l 599 993 m 483 749 q 440 686 465 721 q 388 601 414 651 q 379 579 379 586 q 406 556 379 564 q 467 549 432 549 l 483 749 m 426 307 l 414 150 l 425 163 q 492 233 456 197 l 515 272 q 488 299 515 290 q 429 307 460 307 l 426 307 z "},"y":{"ha":836,"x_min":-22,"x_max":931,"o":"m 439 247 q 415 215 431 232 q 383 181 400 197 q 353 150 367 165 q 336 124 340 135 q 426 111 349 111 l 439 247 m 374 540 q 401 505 374 518 q 460 489 428 492 l 481 725 q 404 615 435 658 q 374 540 374 572 m 815 790 l 761 167 l 799 167 l 799 57 q 692 -13 750 18 q 569 -67 633 -44 q 435 -103 504 -90 q 299 -115 367 -115 q 194 -108 250 -115 q 90 -83 139 -101 q 10 -31 42 -64 q -22 56 -22 3 q 8 148 -22 108 q 75 226 38 188 l 81 343 q 36 468 36 392 q 57 570 36 528 q 106 649 78 613 q 164 720 135 685 q 210 804 193 756 l 208 804 q 185 808 206 804 q 125 818 164 813 l 133 947 l 175 997 l 461 964 q 501 949 485 961 q 519 924 517 936 l 599 993 l 931 961 l 931 861 l 815 790 z "},"z":{"ha":903,"x_min":-6,"x_max":960,"o":"m 960 965 l 951 857 l 903 815 l 824 794 l 858 614 l 807 571 q 610 484 693 525 q 474 403 528 443 q 393 323 419 364 q 367 236 367 282 q 378 180 367 204 q 406 142 389 156 l 671 401 l 878 401 l 838 -47 l 789 -89 l 668 -89 l 631 122 l 396 -92 l 58 -92 q 9 22 24 -29 q -6 119 -6 74 q 43 303 -6 222 q 167 447 92 383 q 335 559 243 511 q 513 643 426 607 q 482 705 500 681 q 442 744 464 729 q 395 764 419 758 q 344 772 371 769 l 290 601 l 242 560 l 129 560 l 129 915 l 151 965 l 960 965 z "},"¡":{"ha":568,"x_min":-40,"x_max":535,"o":"m 513 456 l 451 385 l 411 -79 q 510 -115 411 -83 l 503 -222 l 453 -264 q 33 -337 213 -264 l -40 -260 l 75 -143 l 119 347 l 61 417 l 86 694 l 128 743 l 336 840 l 535 739 l 522 590 l 513 456 z "},"¨":{"ha":578,"x_min":-3,"x_max":543,"o":"m 543 1149 l 524 922 l 474 881 l -3 881 l 17 1099 l 58 1149 l 543 1149 z "},"«":{"ha":993,"x_min":65,"x_max":717,"o":"m 465 690 l 572 835 l 717 719 l 708 617 l 638 475 l 710 265 l 649 146 l 508 47 l 439 158 l 272 7 l 93 297 l 65 426 l 336 794 l 465 690 z "},"´":{"ha":568,"x_min":31,"x_max":546,"o":"m 483 1057 l 546 965 l 493 924 l 46 924 l 31 1006 l 71 1054 l 447 1203 l 517 1083 l 483 1057 z "},"¸":{"ha":431,"x_min":-11,"x_max":379,"o":"m 250 10 l 379 -126 l 369 -203 l 111 -386 l -11 -249 l 90 -151 l 75 -132 l 75 47 l 117 97 l 250 97 l 250 10 z "},"»":{"ha":1017,"x_min":60,"x_max":729,"o":"m 65 86 l 60 193 l 144 367 l 72 576 l 133 696 l 274 794 l 356 656 l 397 738 l 543 847 l 729 468 l 719 369 l 483 39 l 328 150 l 219 -3 l 65 86 z "},"¿":{"ha":890,"x_min":-6,"x_max":825,"o":"m 742 686 q 779 522 763 626 l 800 526 q 793 460 796 494 q 782 390 790 426 q 756 313 774 353 q 704 229 739 272 q 584 102 651 161 q 436 -4 517 43 q 465 -72 446 -46 q 507 -114 483 -99 q 557 -136 531 -129 q 610 -144 583 -143 l 664 17 l 707 67 l 825 67 l 825 -296 l 794 -337 l -6 -337 l 3 -237 l 44 -187 l 128 -165 l 97 7 l 140 54 q 218 93 171 69 q 310 147 265 117 q 386 215 354 178 q 418 293 418 251 q 401 349 418 304 l 422 369 q 378 517 407 446 q 293 668 349 588 l 332 718 l 696 718 l 742 686 z "},"À":{"ha":1315,"x_min":-54,"x_max":1390,"o":"m 732 1203 l 1108 1054 q 1092 969 1097 1003 q 1084 912 1086 935 q 1081 876 1082 889 q 1081 854 1081 863 q 1086 708 1081 783 q 1107 549 1092 633 q 1206 214 1135 385 q 1390 -146 1276 43 l 1336 -185 l 1132 -132 l 1096 -169 l 744 -129 l 690 -167 q 293 -90 550 -92 l 304 -54 l 128 -54 l 165 103 l 299 343 l -39 407 l -54 501 l 318 724 l 288 622 l 678 676 q 691 726 685 701 q 704 776 697 750 l 621 828 l 646 913 l 657 924 l 594 924 l 663 1024 l 624 1039 l 732 1203 m 824 -54 l 1071 -76 l 774 35 l 824 -54 m 338 35 l 494 110 l 247 110 l 232 43 l 338 35 m 501 238 l 558 240 l 649 456 l 501 238 z "},"Á":{"ha":1315,"x_min":-54,"x_max":1390,"o":"m 1081 924 l 1081 854 q 1086 708 1081 783 q 1107 549 1092 633 q 1206 214 1135 385 q 1390 -146 1276 43 l 1336 -185 l 1132 -132 l 1096 -169 l 753 -143 l 744 -129 l 690 -167 q 293 -90 550 -92 l 304 -54 l 128 -54 l 181 161 l 299 343 l -39 407 l -54 501 l -12 550 l 318 724 l 288 622 l 678 676 q 691 726 685 701 q 704 776 697 750 l 621 828 l 646 913 l 672 939 l 660 1006 l 700 1054 l 1078 1203 l 1146 1083 l 1113 1057 l 1175 965 l 1124 924 l 1081 924 m 824 -54 l 1135 -76 l 774 35 l 824 -54 m 338 35 l 494 110 l 247 110 l 232 43 l 338 35 m 501 238 l 558 240 l 649 456 l 501 238 z "},"Â":{"ha":1315,"x_min":-54,"x_max":1390,"o":"m 1081 894 l 1081 854 q 1086 708 1081 783 q 1107 549 1092 633 q 1206 214 1135 385 q 1390 -146 1276 43 l 1336 -185 l 1132 -132 l 1096 -169 l 753 -143 l 744 -129 l 690 -167 q 293 -90 550 -92 l 304 -54 l 128 -54 l 181 161 l 299 343 l -39 407 l -54 501 l -12 550 l 318 724 l 288 622 l 678 676 l 704 776 l 621 828 l 640 894 l 486 894 l 515 936 l 888 1164 l 1256 936 l 1194 894 l 1081 894 m 501 238 l 558 240 l 649 456 l 501 238 m 824 -54 l 1135 -76 l 774 35 l 824 -54 m 338 35 l 494 110 l 247 110 l 232 43 l 338 35 z "},"Ã":{"ha":1315,"x_min":-54,"x_max":1390,"o":"m 621 947 l 840 1167 l 950 1107 l 1076 1182 l 1136 1111 l 1028 986 l 1082 944 q 1081 898 1081 925 q 1081 854 1081 871 q 1101 591 1081 718 q 1162 341 1122 464 q 1259 97 1201 218 q 1390 -146 1317 -24 l 1336 -185 l 1132 -132 l 1096 -169 l 744 -129 l 690 -167 q 293 -90 550 -92 l 304 -54 l 128 -54 l 172 133 q 175 149 172 142 q 190 175 178 156 q 227 233 201 194 q 299 343 253 271 l -39 407 l -54 501 l -12 550 l 318 724 l 288 622 l 678 676 q 691 726 685 701 q 704 776 697 750 l 621 828 l 646 911 l 621 947 m 824 -54 l 1085 -76 l 774 35 l 824 -54 m 338 35 l 494 110 l 247 110 l 232 43 l 338 35 m 501 238 l 558 240 l 649 456 l 501 238 z "},"Ä":{"ha":1315,"x_min":-54,"x_max":1390,"o":"m 624 1099 l 665 1149 l 1149 1149 l 1129 922 l 1081 881 q 1096 628 1081 751 q 1148 382 1111 506 q 1244 128 1185 258 q 1390 -146 1303 -1 l 1336 -185 l 1132 -132 l 1096 -169 l 744 -129 l 690 -167 q 293 -90 550 -92 l 304 -54 l 128 -54 l 181 161 l 299 343 l -39 407 l -54 501 l -12 550 l 318 724 l 288 622 l 678 676 q 691 726 685 701 q 704 776 697 750 l 621 828 l 603 881 l 624 1099 m 824 -54 l 1135 -76 l 774 35 l 824 -54 m 338 35 l 494 110 l 247 110 l 232 43 l 338 35 m 501 238 l 558 240 l 649 456 l 501 238 z "},"Å":{"ha":1315,"x_min":-54,"x_max":1390,"o":"m -54 501 l -12 550 l 318 724 l 288 622 l 678 676 q 691 726 685 701 q 704 776 697 750 l 621 828 l 646 913 l 672 939 q 657 1014 657 972 q 677 1099 657 1056 q 731 1176 697 1142 q 806 1232 764 1210 q 893 1254 849 1254 q 969 1239 933 1254 q 1031 1197 1004 1224 q 1072 1135 1057 1171 q 1088 1060 1088 1100 q 1060 961 1088 1006 l 1082 944 q 1081 898 1081 925 q 1081 854 1081 871 q 1097 622 1081 739 q 1150 381 1114 504 q 1245 126 1186 257 q 1390 -146 1304 -4 l 1336 -185 l 1132 -132 l 1096 -169 l 744 -129 l 690 -167 q 293 -90 550 -92 l 304 -54 l 128 -54 l 181 161 l 299 343 l -39 407 l -54 501 m 824 -54 l 1135 -76 l 774 35 l 824 -54 m 338 35 l 494 110 l 247 110 l 232 43 l 338 35 m 501 238 l 558 240 l 649 456 l 501 238 z "},"Æ":{"ha":1924,"x_min":-54,"x_max":1903,"o":"m 1101 576 l 1164 632 l 1097 608 l 1101 576 m 1096 -169 l 753 -143 l 744 -129 l 690 -167 q 293 -90 550 -92 l 304 -54 l 128 -54 l 165 103 l 178 115 q 172 133 172 121 q 175 149 172 142 q 190 175 178 156 q 227 233 201 194 q 299 343 253 271 l -39 407 l -54 501 l -12 550 l 318 724 l 288 622 l 678 676 l 704 776 l 621 828 l 646 913 l 689 963 l 1019 993 l 1082 944 q 1081 898 1081 925 q 1081 854 1081 871 q 1081 805 1081 829 q 1082 754 1081 781 l 1396 990 l 1436 953 l 1478 1004 l 1832 1033 l 1903 974 l 1714 692 l 1733 692 l 1722 569 l 1672 528 q 1552 532 1604 528 q 1463 543 1500 536 l 1686 429 l 1631 383 l 1371 264 l 1388 257 l 1868 464 l 1842 167 l 1793 124 l 1311 -93 q 1133 -18 1207 -54 q 1013 56 1058 18 l 1007 51 l 889 51 l 1163 -33 l 1146 -128 l 1096 -169 m 1135 -76 l 774 35 l 824 -54 l 1135 -76 m 494 110 l 247 110 l 232 43 l 338 35 l 494 110 m 558 240 l 649 456 l 501 238 l 558 240 z "},"Ç":{"ha":1339,"x_min":-67,"x_max":1407,"o":"m 1078 -203 l 819 -386 l 697 -249 l 799 -151 l 783 -100 l 658 -144 l 503 143 l 383 143 l 347 88 l -14 35 l -67 107 l 99 381 q 97 395 97 388 q 96 413 96 403 q 96 438 96 424 q 107 468 96 453 l 303 765 l 217 783 l 224 881 l 265 929 l 619 960 l 689 899 l 583 751 l 901 990 l 942 953 l 983 1004 l 1338 1033 l 1407 974 l 1219 692 l 1239 692 l 1228 569 l 1178 528 q 886 585 926 528 q 846 548 854 557 q 838 533 838 539 l 999 242 l 1201 400 l 1297 257 l 976 -8 l 1088 -126 l 1078 -203 m 532 235 l 468 338 l 308 235 l 532 235 z "},"È":{"ha":1247,"x_min":-25,"x_max":1290,"o":"m 257 331 l 258 326 l 393 415 q 390 421 392 418 q 389 426 389 424 l 257 331 m 1290 974 l 1101 692 l 1121 692 l 1110 569 l 1060 528 q 849 544 921 528 l 1075 429 l 1019 383 l 758 264 l 775 257 l 1256 464 l 1229 167 l 1181 124 l 697 -93 l 376 54 l 13 -10 l -25 76 l 104 267 l 115 325 l 111 325 q 13 413 13 325 q 15 440 13 424 q 25 468 17 456 l 221 765 l 135 783 l 142 881 l 183 929 l 481 954 l 528 1024 l 489 1039 l 597 1203 l 974 1054 l 967 1011 l 1219 1033 l 1290 974 m 713 915 l 606 915 l 403 650 l 713 915 z "},"É":{"ha":1247,"x_min":-25,"x_max":1290,"o":"m 257 331 l 258 326 l 393 415 q 390 421 392 418 q 389 426 389 424 l 257 331 m 1290 974 l 1101 692 l 1121 692 l 1110 569 l 1060 528 q 849 544 921 528 l 1075 429 l 1019 383 l 758 264 l 775 257 l 1256 464 l 1229 167 l 1181 124 l 697 -93 l 376 54 l 13 -10 l -25 76 l 104 267 l 115 325 l 111 325 q 13 413 13 325 q 13 438 13 424 q 25 468 14 453 l 221 765 l 135 783 l 142 881 l 183 929 l 539 957 l 531 1006 l 571 1054 l 947 1203 l 1017 1083 l 983 1057 l 1011 1015 l 1219 1033 l 1290 974 m 713 915 l 608 915 l 403 650 l 713 915 z "},"Ê":{"ha":1247,"x_min":-25,"x_max":1290,"o":"m 257 331 l 258 326 l 393 415 q 390 421 392 418 q 389 426 389 424 l 257 331 m 1290 974 l 1101 692 l 1121 692 l 1110 569 l 1060 528 q 849 544 921 528 l 1075 429 l 1019 383 l 758 264 l 775 257 l 1256 464 l 1229 167 l 1181 124 l 697 -93 l 376 54 l 13 -10 l -25 76 l 115 325 l 111 325 q 13 413 13 325 q 25 468 13 432 l 221 765 l 135 783 l 142 881 l 183 929 l 457 953 l 801 1164 l 1035 1018 l 1219 1033 l 1290 974 m 713 915 l 607 915 l 403 650 l 713 915 z "},"Ë":{"ha":1247,"x_min":-25,"x_max":1290,"o":"m 257 331 l 258 326 l 393 415 q 390 421 392 418 q 389 426 389 424 l 257 331 m 1290 974 l 1101 692 l 1121 692 l 1110 569 l 1060 528 q 849 544 921 528 l 1075 429 l 1019 383 l 758 264 l 775 257 l 1256 464 l 1229 167 l 1181 124 l 697 -93 l 376 54 l 13 -10 l -25 76 l 104 267 l 115 325 l 111 325 q 13 413 13 325 q 25 468 13 432 l 221 765 l 135 783 l 142 881 l 183 929 l 519 958 l 533 1099 l 575 1149 l 1058 1149 l 1047 1019 l 1219 1033 l 1290 974 m 713 915 l 606 915 l 403 650 l 713 915 z "},"Ì":{"ha":697,"x_min":-131,"x_max":707,"o":"m 619 1054 l 601 965 l 688 964 l 707 663 l 567 564 l 546 625 l 508 206 l 579 310 l 671 246 l 599 -50 l 550 -92 l 42 -92 l 22 206 l 69 256 l -131 343 l -122 433 l -81 482 l 139 564 l 81 564 l 58 625 l 172 1024 l 133 1039 l 242 1203 l 619 1054 m 286 786 l 263 786 l 200 656 l 274 656 l 286 786 z "},"Í":{"ha":697,"x_min":-131,"x_max":707,"o":"m 688 964 l 707 663 l 567 564 l 546 622 l 508 206 l 579 310 l 671 246 l 599 -50 l 550 -92 l 42 -92 l 22 206 l 69 256 l -131 343 l -122 433 l -81 482 l 139 564 l 58 625 l 131 915 l 169 954 l 161 1006 l 201 1054 l 578 1203 l 647 1083 l 614 1057 l 688 964 m 286 786 l 263 786 l 200 656 l 274 656 l 286 786 z "},"Î":{"ha":697,"x_min":-131,"x_max":794,"o":"m 732 894 l 692 894 l 707 663 l 567 564 l 546 622 l 508 206 l 579 310 l 671 246 l 599 -50 l 550 -92 l 42 -92 l 65 247 l 69 256 l -131 343 l -122 433 l -81 482 l 139 564 l 81 564 l 58 625 l 125 894 l 24 894 l 54 936 l 425 1164 l 794 936 l 732 894 m 286 786 l 263 786 l 200 656 l 274 656 l 286 786 z "},"Ï":{"ha":697,"x_min":-131,"x_max":707,"o":"m 665 964 l 688 964 l 707 663 l 567 564 l 546 625 l 508 206 l 579 310 l 671 246 l 599 -50 l 550 -92 l 42 -92 l 22 206 l 69 256 l -131 343 l -122 433 l -81 482 l 139 564 l 81 564 l 58 625 l 131 915 l 140 925 l 156 1099 l 197 1149 l 682 1149 l 665 964 m 286 786 l 263 786 l 200 656 l 274 656 l 286 786 z "},"Ð":{"ha":1433,"x_min":7,"x_max":1503,"o":"m 1229 851 l 1218 849 l 1179 810 l 1125 799 l 1242 704 l 1503 483 l 1493 383 l 1444 339 l 867 -143 l 629 -10 l 506 -10 l 535 321 l 333 321 l 358 217 l 349 222 l 307 181 l 7 358 l 19 436 l 60 476 l 61 485 l 394 639 l 460 739 l 372 757 l 379 854 l 419 894 l 421 903 l 774 933 l 807 903 l 868 965 l 1235 965 l 1229 851 m 1150 379 l 978 538 l 953 253 l 1150 379 m 875 615 l 756 749 l 657 615 l 875 615 z "},"Ñ":{"ha":1490,"x_min":-4,"x_max":1467,"o":"m 554 90 l 614 93 l 639 371 l 317 400 l 321 349 l 272 310 l -4 464 l 21 558 l 63 608 l 340 646 l 272 797 q 260 839 260 824 q 272 876 260 857 q 301 913 283 896 q 341 941 319 929 q 383 954 363 953 l 604 968 l 804 1167 l 913 1107 l 1039 1182 l 1099 1111 l 982 974 l 992 965 l 1404 993 l 1460 944 q 1465 858 1463 906 q 1467 772 1467 811 q 1456 559 1467 672 q 1422 327 1444 446 q 1369 88 1400 208 q 1299 -143 1338 -32 l 1251 -183 q 1003 -81 1142 -119 l 906 -168 q 731 -115 831 -133 q 500 -90 631 -96 l 511 40 l 554 90 m 726 842 l 569 842 l 699 589 l 717 589 l 726 842 m 1132 501 q 1140 576 1138 540 q 1144 647 1142 613 q 964 315 1061 531 l 946 118 q 1025 107 1010 107 q 1089 290 1061 192 q 1132 501 1117 388 m 968 644 l 1129 915 l 1010 915 l 968 644 z "},"Ò":{"ha":1393,"x_min":-1,"x_max":1389,"o":"m 1235 1054 l 1222 989 l 1389 989 l 1367 744 q 1294 683 1322 725 q 1265 579 1265 642 q 1271 497 1265 539 q 1287 412 1276 454 q 1312 329 1297 369 q 1344 256 1326 289 q 1365 202 1358 231 q 1371 144 1371 174 q 1337 17 1371 68 q 1249 -66 1303 -35 q 1129 -110 1196 -97 q 996 -124 1063 -124 q 860 -112 926 -124 q 738 -81 794 -100 q 635 -40 681 -62 q 564 4 590 -18 l 579 108 l 619 147 l 639 360 l 293 411 l 293 347 l 244 310 l -1 503 l 32 579 l 76 629 l 329 669 l 264 811 q 254 832 257 822 q 251 853 251 842 q 263 891 251 871 q 294 928 275 911 q 335 956 313 944 q 378 968 357 968 l 756 976 l 788 1024 l 750 1039 l 815 1151 l 858 1203 l 1235 1054 m 711 610 l 711 832 l 575 832 l 686 610 l 711 610 m 1035 113 q 1017 160 1028 129 q 997 224 1007 190 q 978 288 986 257 q 965 335 969 318 l 946 107 q 955 106 949 106 q 981 106 961 106 q 1035 113 1004 106 z "},"Ó":{"ha":1393,"x_min":-1,"x_max":1389,"o":"m 1035 113 q 1017 160 1028 129 q 997 224 1007 190 q 978 288 986 257 q 965 335 969 318 l 946 107 q 955 106 949 106 q 981 106 961 106 q 1035 113 1004 106 m 1367 744 q 1294 683 1322 725 q 1265 579 1265 642 q 1271 497 1265 539 q 1287 412 1276 454 q 1312 329 1297 369 q 1344 256 1326 289 q 1365 202 1358 231 q 1371 144 1371 174 q 1337 17 1371 68 q 1249 -66 1303 -35 q 1129 -110 1196 -97 q 996 -124 1063 -124 q 860 -112 926 -124 q 738 -81 794 -100 q 635 -40 681 -62 q 564 4 590 -18 l 579 108 l 619 147 l 639 360 l 293 411 l 293 347 l 244 310 l -1 503 l 32 579 l 76 629 l 329 669 l 264 811 q 254 832 257 822 q 251 853 251 842 q 263 891 251 871 q 294 928 275 911 q 335 956 313 944 q 378 968 357 968 l 772 978 l 769 1006 l 810 1054 l 1186 1203 l 1256 1083 l 1222 1057 l 1268 990 l 1389 990 l 1367 744 m 711 610 l 711 832 l 575 832 l 686 610 l 711 610 z "},"Ô":{"ha":1393,"x_min":-1,"x_max":1389,"o":"m 1367 744 q 1290 683 1315 725 q 1265 579 1265 640 q 1271 497 1265 539 q 1287 412 1276 454 q 1312 329 1297 369 q 1344 256 1326 289 q 1365 202 1358 231 q 1371 144 1371 174 q 1337 17 1371 68 q 1249 -66 1303 -35 q 1129 -110 1196 -97 q 996 -124 1063 -124 q 860 -112 926 -124 q 738 -81 794 -100 q 635 -40 681 -62 q 564 4 590 -18 l 579 108 l 619 147 l 639 360 l 293 411 l 293 347 l 244 310 l -1 503 l 32 579 l 76 629 l 329 669 l 264 811 q 254 832 257 822 q 251 853 251 842 q 263 894 251 874 q 293 931 275 914 q 333 958 311 947 q 378 968 356 968 l 694 975 l 1003 1164 l 1282 990 l 1389 990 l 1367 744 m 711 610 l 711 832 l 575 832 l 686 610 l 711 610 m 1035 113 q 1017 160 1028 129 q 997 224 1007 190 q 978 288 986 257 q 965 335 969 318 l 946 107 q 955 106 949 106 q 981 106 961 106 q 1035 113 1004 106 z "},"Õ":{"ha":1393,"x_min":-1,"x_max":1389,"o":"m 1317 703 q 1274 656 1283 692 q 1265 579 1265 619 q 1271 497 1265 539 q 1287 412 1276 454 q 1312 329 1297 369 q 1344 256 1326 289 q 1365 202 1358 231 q 1371 144 1371 174 q 1349 41 1371 90 q 1282 -36 1328 -8 l 1263 -56 q 1208 -91 1240 -78 q 1140 -112 1176 -104 q 1067 -122 1104 -119 q 996 -124 1029 -124 q 860 -112 926 -124 q 738 -81 794 -100 q 635 -40 681 -62 q 564 4 590 -18 q 565 39 564 25 q 569 63 567 53 q 574 84 571 74 q 579 108 576 94 l 619 147 l 639 360 l 293 411 l 293 347 l 288 353 l 244 310 l -1 503 l 32 579 l 71 618 l 76 629 l 329 669 l 264 811 q 254 832 257 822 q 251 853 251 842 q 269 899 251 881 l 299 928 q 378 968 315 967 l 753 976 l 765 993 l 946 1167 l 1054 1107 l 1181 1182 l 1240 1111 l 1133 988 l 1389 988 l 1367 744 q 1356 738 1364 743 q 1317 703 1347 732 m 711 610 l 711 832 l 575 832 l 686 610 l 711 610 m 1033 119 q 965 335 990 218 l 946 107 q 961 106 950 106 l 981 106 q 1035 113 1004 106 q 1034 115 1035 114 q 1033 118 1033 117 l 1033 119 z "},"Ö":{"ha":1393,"x_min":-1,"x_max":1389,"o":"m 1033 119 q 994 222 1011 168 q 965 335 978 276 l 946 107 q 955 106 949 106 q 981 106 961 106 q 1035 113 1004 106 q 1034 115 1035 114 q 1033 118 1033 117 l 1033 119 m 1263 1149 l 1249 990 l 1389 990 l 1367 744 q 1294 683 1322 725 q 1265 579 1265 642 q 1271 497 1265 539 q 1287 412 1276 454 q 1312 329 1297 369 q 1344 256 1326 289 q 1365 202 1358 231 q 1371 144 1371 174 q 1336 22 1371 72 q 1247 -62 1301 -29 q 1126 -109 1193 -94 q 996 -124 1060 -124 q 860 -112 926 -124 q 738 -81 794 -100 q 635 -40 681 -62 q 564 4 590 -18 l 579 108 l 619 147 l 639 360 l 293 411 l 293 347 l 244 310 l -1 503 l 32 579 l 76 629 l 329 669 l 264 811 q 255 833 258 824 q 251 853 251 842 q 263 894 251 874 q 293 931 275 914 q 333 958 311 947 q 378 968 356 968 l 725 975 l 736 1099 l 778 1149 l 1263 1149 m 711 610 l 711 832 l 575 832 l 686 610 l 711 610 z "},"Ø":{"ha":1393,"x_min":-1,"x_max":1389,"o":"m 1367 744 q 1292 681 1318 725 q 1265 579 1265 636 q 1271 497 1265 539 q 1287 412 1276 454 q 1312 329 1297 369 q 1344 256 1326 289 q 1365 202 1358 231 q 1371 144 1371 174 q 1337 17 1371 68 q 1249 -66 1303 -35 q 1129 -110 1196 -97 q 996 -124 1063 -124 q 860 -112 926 -124 q 738 -81 794 -100 q 635 -40 681 -62 q 564 4 590 -18 q 565 39 564 25 q 569 63 567 53 q 574 84 571 74 q 579 108 576 94 l 619 147 l 639 360 l 293 411 l 293 347 l 244 310 l -1 503 l 32 579 l 76 629 l 329 669 l 264 811 q 255 833 258 824 q 251 853 251 842 q 263 894 251 874 q 293 931 275 914 q 333 958 311 947 q 378 968 356 968 l 1389 993 l 1367 744 m 711 832 l 575 832 l 686 610 l 711 610 l 711 832 m 956 235 l 946 107 q 955 106 949 106 q 981 106 961 106 q 1006 108 993 106 q 1033 118 1019 111 q 1006 185 1018 150 q 985 258 994 221 l 956 235 z "},"Ù":{"ha":1339,"x_min":29,"x_max":1396,"o":"m 1156 1054 l 1142 986 l 1396 961 l 1390 861 l 1281 792 l 1226 158 l 1263 158 l 1271 51 q 1180 -16 1233 15 q 1061 -72 1126 -47 q 921 -110 996 -96 q 764 -124 846 -124 q 650 -116 704 -124 q 555 -87 596 -108 q 490 -30 514 -67 q 465 65 465 7 q 478 143 465 104 q 514 215 490 182 q 551 281 533 243 q 582 352 568 318 q 603 411 596 386 q 611 440 611 436 l 346 483 l 358 397 l 307 358 l 29 567 l 114 689 l 336 738 l 274 872 q 265 893 268 883 q 263 914 263 903 q 272 944 263 924 q 298 983 282 964 q 335 1016 314 1001 q 379 1031 356 1031 q 394 1029 389 1031 l 686 992 l 707 1024 l 669 1039 l 778 1203 l 1156 1054 m 581 871 l 706 650 q 707 666 707 657 q 707 703 707 675 q 703 776 707 738 q 685 856 699 815 l 581 871 m 914 357 q 876 281 896 317 q 841 218 857 246 q 815 169 825 190 q 804 138 804 149 q 831 113 804 121 q 892 106 858 106 l 914 357 z "},"Ú":{"ha":1339,"x_min":29,"x_max":1396,"o":"m 1226 158 l 1263 158 q 1263 110 1263 126 q 1263 85 1263 94 q 1265 70 1263 76 q 1271 51 1267 64 q 1180 -16 1233 15 q 1061 -72 1126 -47 q 921 -110 996 -96 q 764 -124 846 -124 q 650 -116 704 -124 q 555 -87 596 -108 q 490 -30 514 -67 q 465 65 465 7 q 478 143 465 104 q 514 215 490 182 q 551 281 533 243 q 582 352 568 318 q 603 411 596 386 q 611 440 611 436 l 346 483 l 358 397 l 307 358 l 29 567 l 114 689 l 336 738 l 274 872 q 265 893 268 883 q 263 914 263 903 q 272 944 263 924 q 298 983 282 964 q 335 1016 314 1001 q 379 1031 356 1031 q 394 1029 389 1031 l 736 986 l 774 1054 l 1151 1203 l 1221 1083 l 1207 1078 l 1186 1057 l 1242 975 l 1396 961 l 1390 861 q 1385 859 1388 861 q 1372 850 1382 857 q 1340 830 1361 843 q 1281 792 1318 817 l 1226 158 m 914 357 q 876 281 896 317 q 841 218 857 246 q 815 169 825 190 q 804 138 804 149 q 831 113 804 121 q 892 106 858 106 l 914 357 m 581 871 l 706 650 q 707 666 707 657 q 707 703 707 675 q 703 776 707 738 q 685 856 699 815 l 581 871 z "},"Û":{"ha":1339,"x_min":29,"x_max":1396,"o":"m 1281 792 l 1226 158 l 1263 158 l 1271 51 q 1180 -16 1233 15 q 1061 -72 1126 -47 q 921 -110 996 -96 q 764 -124 846 -124 q 650 -116 704 -124 q 555 -87 596 -108 q 490 -30 514 -67 q 465 65 465 7 q 478 143 465 103 q 514 215 490 183 q 551 281 533 244 q 582 352 568 318 q 603 411 596 386 q 611 440 611 436 l 346 483 l 358 397 l 307 358 l 29 567 l 114 689 l 336 738 l 274 872 q 265 893 268 883 q 263 914 263 903 q 275 958 263 938 q 306 994 288 978 q 349 1019 325 1010 q 394 1029 372 1028 l 676 993 l 953 1164 l 1258 974 l 1396 961 l 1390 861 l 1281 792 m 581 871 l 706 650 q 707 663 707 657 q 707 675 707 668 l 707 703 q 703 776 707 738 q 685 856 699 815 l 581 871 m 914 357 q 876 281 896 317 q 841 218 857 246 q 815 169 825 190 q 804 138 804 149 q 831 113 804 121 q 892 106 858 106 l 914 357 z "},"Ü":{"ha":1339,"x_min":29,"x_max":1396,"o":"m 1240 1149 l 1225 978 l 1396 961 l 1390 861 l 1281 792 l 1226 158 l 1263 158 l 1271 51 q 1180 -16 1233 15 q 1061 -72 1126 -47 q 921 -110 996 -96 q 764 -124 846 -124 q 650 -116 704 -124 q 555 -87 596 -108 q 490 -30 514 -67 q 465 65 465 7 q 476 123 465 90 q 503 192 488 156 q 539 267 519 229 q 574 338 558 304 q 601 398 590 371 q 611 440 611 425 l 346 483 l 358 397 l 307 358 l 29 567 l 114 689 l 336 738 l 274 872 q 265 893 268 883 q 263 914 263 903 q 275 958 263 938 q 306 994 288 978 q 349 1019 325 1010 q 394 1029 372 1028 l 704 990 l 714 1099 l 756 1149 l 1240 1149 m 914 357 q 889 299 907 329 q 852 241 871 269 q 819 186 833 213 q 804 138 804 160 q 831 113 804 121 q 892 106 858 106 l 914 357 m 581 871 l 706 650 q 707 663 707 657 q 707 675 707 668 l 707 703 q 703 776 707 738 q 685 856 699 815 l 581 871 z "},"Ý":{"ha":1425,"x_min":49,"x_max":1521,"o":"m 1017 111 l 1029 247 q 1006 214 1021 231 q 974 181 990 197 q 944 151 958 165 q 925 124 931 136 q 953 115 932 118 q 1001 111 975 111 l 1017 111 m 964 536 q 990 503 971 513 q 1050 489 1010 493 l 1071 725 q 1044 683 1063 710 q 1009 628 1026 657 q 978 576 992 600 q 964 540 964 551 l 964 536 m 1515 861 q 1469 828 1488 840 q 1438 808 1450 815 q 1419 797 1426 800 q 1406 792 1411 793 l 1351 167 l 1389 167 l 1389 57 q 1286 -17 1344 15 q 1162 -71 1228 -49 q 1026 -104 1096 -93 q 889 -115 957 -115 q 783 -108 839 -115 q 678 -83 726 -101 q 599 -31 631 -64 q 568 56 568 3 q 572 85 568 69 q 585 122 575 101 q 613 167 594 142 q 664 226 632 193 l 671 343 q 650 375 665 349 q 626 443 635 401 l 339 481 l 339 419 l 296 376 l 49 554 l 67 632 l 108 682 l 338 735 l 275 871 q 264 913 264 890 q 283 960 264 940 l 313 989 q 397 1044 332 1025 l 865 986 l 903 1054 l 1281 1203 l 1350 1083 l 1317 1057 l 1371 975 l 1521 961 l 1515 861 z "},"ß":{"ha":1579,"x_min":-21,"x_max":1679,"o":"m 953 965 l 1224 965 l 1254 1004 l 1608 1033 l 1679 974 l 1490 692 l 1511 692 l 1499 569 l 1490 569 l 1469 549 q 1535 369 1515 451 q 1556 213 1556 288 q 1485 -50 1556 81 l 1436 -92 l 1097 -92 l 922 99 l 839 -92 l 378 -92 l 203 99 l 113 -89 l -21 -89 l 18 351 l 43 375 l 15 404 l 149 783 l 25 817 l 32 915 l 74 965 l 504 965 l 535 1004 l 889 1033 l 953 965 m 868 783 l 838 792 l 772 692 l 792 692 l 779 569 l 750 549 l 763 540 q 768 526 765 533 q 772 513 771 519 l 868 783 m 381 572 l 450 572 q 432 606 432 586 q 435 626 432 619 q 444 640 438 632 l 511 746 q 476 732 493 739 q 446 715 460 725 l 381 572 m 1099 572 l 1169 572 q 1151 606 1151 586 q 1154 626 1151 619 q 1164 640 1157 632 l 1231 746 q 1196 732 1213 739 q 1164 715 1179 725 l 1099 572 m 524 244 q 515 340 524 292 l 436 340 l 524 244 m 1243 244 q 1235 340 1243 292 l 1156 340 l 1243 244 z "},"à":{"ha":913,"x_min":-110,"x_max":989,"o":"m 693 1054 l 676 965 l 663 958 l 679 921 q 678 899 678 911 q 678 858 678 888 q 693 628 678 744 q 744 388 708 511 q 840 131 781 264 q 989 -146 900 -1 l 933 -185 l 431 -57 l 289 -167 q -110 -90 147 -92 l -76 13 l -33 63 q 58 94 25 76 q 194 426 135 258 q 301 776 254 594 l 218 828 l 254 924 l 179 924 l 247 1024 l 207 1039 l 315 1203 l 693 1054 z "},"á":{"ha":913,"x_min":-110,"x_max":989,"o":"m 678 924 l 678 858 q 693 628 678 744 q 744 388 708 511 q 840 131 781 264 q 989 -146 900 -1 l 933 -185 l 426 -53 l 431 -57 l 289 -167 q -110 -90 147 -92 l -76 13 l -33 63 q 58 94 25 76 q 194 426 135 258 q 301 776 254 594 l 218 828 l 246 924 l 229 1006 l 271 1054 l 647 1203 l 717 1083 l 683 1057 l 746 965 l 678 924 z "},"â":{"ha":913,"x_min":-110,"x_max":989,"o":"m 792 894 l 678 894 l 678 858 q 693 628 678 744 q 744 388 708 511 q 840 131 781 264 q 989 -146 900 -1 l 933 -185 l 426 -53 l 431 -57 l 289 -167 q -110 -90 147 -92 l -76 13 l -33 63 q 58 94 25 76 q 194 426 135 258 q 301 776 254 594 l 218 828 l 238 894 l 82 894 l 485 1164 l 853 936 l 792 894 z "},"ã":{"ha":913,"x_min":-110,"x_max":989,"o":"m 679 921 q 678 899 678 911 q 678 858 678 888 q 693 628 678 744 q 744 388 708 511 q 840 131 781 264 q 989 -146 900 -1 l 933 -185 l 431 -57 l 289 -167 q -110 -90 147 -92 l -76 13 l -33 63 q 58 94 25 76 q 194 426 135 258 q 301 776 254 594 l 218 828 l 243 910 l 217 947 l 438 1167 l 546 1107 l 672 1182 l 732 1111 l 625 988 l 663 958 l 679 921 z "},"ä":{"ha":913,"x_min":-110,"x_max":989,"o":"m 754 922 l 706 881 l 678 881 q 693 638 678 758 q 744 390 708 517 q 840 131 781 264 q 989 -146 900 -1 l 933 -185 l 426 -53 l 431 -57 l 289 -167 q -110 -90 147 -92 l -76 13 l -33 63 q 58 94 25 76 q 194 426 135 258 q 301 776 254 594 l 218 828 l 249 1099 l 290 1149 l 774 1149 l 754 922 z "},"å":{"ha":913,"x_min":-110,"x_max":989,"o":"m 426 -53 l 289 -167 q -110 -90 147 -92 l -76 13 l -33 63 q 58 94 25 76 q 194 426 135 258 q 301 776 254 594 l 218 828 l 244 913 l 269 938 q 253 1014 253 972 q 274 1097 253 1054 q 328 1174 294 1139 q 403 1232 361 1210 q 489 1254 446 1254 q 564 1239 528 1254 q 626 1197 600 1224 q 669 1135 653 1171 q 685 1060 685 1100 q 677 1009 685 1033 q 657 963 669 985 l 681 944 q 678 900 679 926 q 678 858 678 874 q 693 628 678 744 q 744 388 708 511 q 840 131 781 264 q 989 -146 900 -1 l 975 -142 l 933 -185 l 426 -53 z "},"æ":{"ha":1500,"x_min":-110,"x_max":1490,"o":"m 1490 974 l 1303 692 l 1322 692 l 1311 569 l 1303 569 l 1261 528 q 1051 543 1128 528 l 1274 429 l 1257 422 l 1219 383 l 960 264 l 976 257 l 1457 464 l 1431 167 l 1382 124 l 903 -92 q 603 51 699 -40 l 368 51 l 364 43 l 431 -57 l 289 -167 q -110 -90 147 -92 l -76 13 l -33 63 q 58 94 25 76 q 194 426 135 258 q 301 776 254 594 l 218 828 l 244 913 l 288 963 l 618 993 l 679 936 q 678 910 678 926 q 678 888 678 894 l 678 810 q 678 786 678 799 q 681 761 679 774 l 985 990 l 1025 953 l 1065 994 l 1067 1004 l 1421 1033 l 1490 974 m 697 583 q 726 610 713 599 q 751 632 740 621 l 693 611 l 697 583 z "},"ç":{"ha":864,"x_min":28,"x_max":932,"o":"m 592 -203 l 333 -386 l 210 -249 l 313 -151 l 296 -132 l 296 -43 l 54 381 q 36 408 44 396 q 28 439 28 421 q 34 469 28 453 q 56 501 40 486 l 193 632 l 101 599 l 53 693 l 425 990 l 467 953 l 508 1004 l 861 1033 l 932 974 l 744 692 l 764 692 l 751 569 l 703 528 q 411 585 449 528 l 376 554 q 363 533 363 544 l 524 242 l 726 400 l 822 257 l 496 -11 l 600 -125 l 592 -203 z "},"è":{"ha":919,"x_min":7,"x_max":963,"o":"m 774 692 l 794 692 l 782 569 l 732 528 q 612 532 664 528 q 522 543 560 536 l 746 429 l 431 264 l 447 257 l 928 464 l 903 167 l 369 -93 l 64 42 q 19 86 31 57 q 7 143 7 115 q 41 237 7 190 q 142 315 75 283 l 189 338 l 93 386 q 65 415 71 397 q 58 446 58 432 q 81 499 58 476 l 225 633 l 132 599 l 82 693 l 365 924 l 281 924 l 349 1024 l 310 1039 l 418 1203 l 794 1054 l 790 1025 l 892 1033 l 963 974 l 774 692 z "},"é":{"ha":919,"x_min":7,"x_max":963,"o":"m 774 692 l 794 692 l 782 569 l 732 528 q 612 532 664 528 q 522 543 560 536 l 746 429 l 690 383 l 431 264 l 447 257 l 928 464 l 903 167 l 853 124 l 369 -93 l 64 42 q 19 86 31 57 q 7 143 7 115 q 21 190 7 164 q 60 244 35 217 q 118 295 85 271 q 189 338 151 319 l 93 386 q 65 415 71 397 q 58 446 58 432 q 81 499 58 476 l 225 633 l 132 599 l 82 693 l 365 924 l 336 924 l 319 1006 l 738 1203 l 807 1083 l 772 1057 l 794 1025 l 892 1033 l 963 974 l 774 692 z "},"ê":{"ha":919,"x_min":7,"x_max":963,"o":"m 774 692 l 794 692 l 782 569 l 732 528 q 612 532 664 528 q 522 543 560 536 l 746 429 l 431 264 l 447 257 l 928 464 l 903 167 l 369 -93 l 64 42 q 19 86 31 57 q 7 143 7 115 q 20 199 7 172 q 53 249 33 226 q 97 288 72 271 q 142 315 121 306 l 189 338 l 93 386 q 58 446 58 419 q 81 499 58 476 l 225 633 l 132 599 l 82 693 l 365 924 l 147 924 l 178 965 l 550 1192 l 815 1028 l 892 1033 l 963 974 l 774 692 z "},"ë":{"ha":919,"x_min":7,"x_max":963,"o":"m 774 692 l 794 692 l 782 569 l 732 528 q 612 532 664 528 q 522 543 560 536 l 746 429 l 690 383 l 431 264 l 447 257 l 928 464 l 903 167 l 853 124 l 369 -93 l 64 42 q 19 88 31 57 q 7 157 7 119 q 34 235 7 193 q 142 315 61 276 l 189 338 l 93 386 q 58 446 58 419 q 81 499 58 476 l 225 633 l 132 599 l 82 693 l 321 889 l 225 889 l 244 1108 l 286 1158 l 771 1158 l 758 1022 l 892 1033 l 963 974 l 774 692 z "},"ì":{"ha":697,"x_min":22,"x_max":707,"o":"m 508 206 l 579 310 l 671 246 l 599 -50 l 550 -92 l 42 -92 l 22 206 l 163 313 l 185 247 l 222 667 l 143 567 l 58 625 l 131 915 l 207 1024 l 167 1039 l 275 1203 l 653 1054 l 636 965 l 688 964 l 707 663 l 567 564 l 546 625 l 508 206 z "},"í":{"ha":697,"x_min":22,"x_max":707,"o":"m 688 956 l 707 663 l 567 564 l 546 625 l 508 206 l 579 310 l 671 246 l 599 -50 l 550 -92 l 42 -92 l 22 206 l 163 313 l 185 247 l 222 667 l 143 567 l 58 625 l 131 915 l 199 965 l 192 1006 l 232 1054 l 610 1203 l 679 1083 l 644 1057 l 688 956 z "},"î":{"ha":697,"x_min":22,"x_max":707,"o":"m 438 1164 l 690 1007 l 707 663 l 567 564 l 546 625 l 508 206 l 579 310 l 671 246 l 599 -50 l 550 -92 l 42 -92 l 22 206 l 163 313 l 185 247 l 222 667 l 143 567 l 58 625 l 143 967 l 438 1164 z "},"ï":{"ha":697,"x_min":22,"x_max":707,"o":"m 668 964 l 688 964 l 707 663 l 567 564 l 546 622 l 508 206 l 579 310 l 671 246 l 599 -50 l 550 -92 l 42 -92 l 22 206 l 163 313 l 185 247 l 222 667 l 143 567 l 58 625 l 131 915 l 143 928 l 156 1063 l 197 1113 l 682 1113 l 668 964 z "},"ð":{"ha":1433,"x_min":7,"x_max":1503,"o":"m 1229 851 l 1218 849 l 1179 810 l 1125 799 l 1242 704 l 1503 483 l 1493 383 l 1444 339 l 867 -143 l 629 -10 l 506 -10 l 535 321 l 333 321 l 358 217 l 349 222 l 307 181 l 7 358 l 19 436 l 60 476 l 61 485 l 394 639 l 460 739 l 372 757 l 379 854 l 419 894 l 421 903 l 774 933 l 807 903 l 868 965 l 1235 965 l 1229 851 m 1150 379 l 978 538 l 953 253 l 1150 379 m 875 615 l 756 749 l 657 615 l 875 615 z "},"ñ":{"ha":1021,"x_min":10,"x_max":979,"o":"m 956 957 q 974 847 968 903 q 979 732 979 790 q 967 535 979 635 q 939 338 954 436 q 889 108 921 224 q 810 -143 857 -8 l 761 -183 q 511 -81 656 -121 l 417 -167 q 234 -111 333 -131 q 10 -90 135 -92 l 15 11 l 57 58 q 94 69 78 65 q 122 78 110 74 q 163 544 149 371 q 179 775 178 717 l 89 822 l 89 911 l 136 961 l 329 981 l 517 1167 l 625 1107 l 751 1182 l 813 1111 l 707 974 l 914 993 l 956 957 m 618 361 q 641 506 632 436 q 654 646 650 575 q 567 506 611 588 q 474 315 522 424 l 457 118 q 533 107 517 107 q 578 228 558 165 q 618 361 599 290 m 513 763 l 594 871 l 528 914 l 513 763 z "},"ò":{"ha":864,"x_min":35,"x_max":860,"o":"m 506 118 q 467 221 485 167 q 436 333 449 275 l 418 107 q 426 106 421 106 q 451 106 432 106 q 507 113 475 106 q 506 115 507 114 q 506 118 506 117 m 710 1054 l 697 989 l 860 989 l 838 744 q 765 682 793 724 q 736 579 736 640 q 742 497 736 540 q 758 412 747 454 q 783 329 768 369 q 815 256 797 289 q 842 144 842 203 q 808 18 842 69 q 720 -65 774 -33 q 600 -110 667 -96 q 468 -124 533 -124 q 332 -112 399 -124 q 208 -81 265 -100 q 106 -40 151 -62 q 35 4 61 -18 l 51 108 l 92 151 q 127 567 115 413 q 140 775 139 722 l 50 822 l 50 914 l 97 964 l 226 964 l 264 1024 l 225 1039 l 333 1203 l 710 1054 z "},"ó":{"ha":864,"x_min":35,"x_max":860,"o":"m 506 118 q 466 222 483 169 q 436 333 449 275 l 418 107 q 426 106 421 106 q 451 106 432 106 q 507 113 475 106 q 506 115 507 114 q 506 118 506 117 m 838 744 q 763 685 789 729 q 736 579 736 640 q 742 497 736 540 q 758 412 747 454 q 783 329 768 369 q 815 256 797 289 q 842 144 842 203 q 808 18 842 69 q 720 -65 774 -33 q 600 -110 667 -96 q 468 -124 533 -124 q 332 -112 399 -124 q 208 -81 265 -100 q 106 -40 151 -62 q 35 4 61 -18 q 36 39 35 25 q 40 63 38 53 q 45 83 42 74 q 51 108 49 93 l 90 147 q 127 564 115 406 q 140 775 139 722 l 50 822 l 50 914 l 97 964 l 249 964 l 242 1006 l 282 1054 l 660 1203 l 729 1083 l 694 1057 l 740 990 l 860 990 l 838 744 z "},"ô":{"ha":864,"x_min":35,"x_max":860,"o":"m 838 744 q 762 686 788 732 q 736 579 736 640 q 742 497 736 540 q 758 412 747 454 q 783 329 768 369 q 815 256 797 289 q 842 144 842 203 q 808 18 842 69 q 720 -65 774 -33 q 600 -110 667 -96 q 468 -124 533 -124 q 332 -112 399 -124 q 208 -81 265 -100 q 106 -40 151 -62 q 35 4 61 -18 l 51 108 l 92 151 q 127 567 115 413 q 140 775 139 722 l 50 822 l 50 914 l 97 964 l 157 967 l 481 1164 l 760 990 l 860 990 l 838 744 m 504 119 q 466 222 483 169 q 436 333 449 275 l 418 107 q 426 106 421 106 q 451 106 432 106 q 506 113 474 106 q 505 116 506 115 q 504 119 504 117 z "},"õ":{"ha":864,"x_min":35,"x_max":860,"o":"m 504 119 q 466 222 483 169 q 436 333 449 275 l 418 107 q 426 106 421 106 q 451 106 432 106 q 507 113 475 106 q 506 117 507 115 q 504 119 504 118 m 838 744 q 795 728 814 743 q 763 691 776 714 q 743 639 750 668 q 736 579 736 610 q 742 497 736 540 q 758 412 747 454 q 783 329 768 369 q 815 256 797 289 q 842 144 842 203 q 808 18 842 69 q 720 -65 774 -33 q 600 -110 667 -96 q 468 -124 533 -124 q 332 -112 399 -124 q 208 -81 265 -100 q 106 -40 151 -62 q 35 4 61 -18 l 51 108 l 92 151 q 127 567 115 413 q 140 775 139 722 l 50 822 l 50 914 l 97 964 l 226 964 l 425 1167 l 533 1107 l 661 1182 l 721 1111 l 611 985 l 860 985 l 838 744 z "},"ö":{"ha":864,"x_min":35,"x_max":860,"o":"m 724 989 l 860 989 l 838 744 q 765 682 793 724 q 736 579 736 640 q 742 497 736 540 q 758 412 747 454 q 783 329 768 369 q 815 256 797 289 q 842 144 842 203 q 808 18 842 69 q 720 -65 774 -33 q 600 -110 667 -96 q 468 -124 533 -124 q 332 -112 399 -124 q 208 -81 265 -100 q 106 -40 151 -62 q 35 4 61 -18 l 51 108 l 92 151 q 127 567 115 413 q 140 775 139 722 l 50 822 l 50 914 l 97 964 l 199 964 l 211 1099 l 253 1149 l 738 1149 l 724 989 m 504 119 q 466 222 483 169 q 436 333 449 275 l 418 107 q 426 106 421 106 q 451 106 432 106 q 507 113 475 106 q 506 115 507 114 q 506 118 506 117 l 504 119 z "},"ø":{"ha":864,"x_min":35,"x_max":860,"o":"m 444 300 q 441 310 442 306 q 438 321 440 315 l 428 251 l 418 107 q 432 106 422 106 q 456 106 443 106 q 481 107 469 106 q 499 111 492 108 q 504 118 506 114 q 444 300 472 199 m 838 744 q 765 682 793 724 q 736 579 736 640 q 742 497 736 540 q 758 412 747 454 q 783 329 768 369 q 815 256 797 289 q 842 144 842 203 q 808 18 842 69 q 720 -65 774 -33 q 600 -110 667 -96 q 468 -124 533 -124 q 332 -112 399 -124 q 208 -81 265 -100 q 106 -40 151 -62 q 35 4 61 -18 q 36 39 35 25 q 40 63 38 53 q 45 83 42 74 q 51 108 49 93 l 90 147 q 92 151 90 150 q 127 567 115 413 q 140 775 139 722 l 50 822 l 50 914 l 97 985 l 860 985 l 838 744 z "},"ù":{"ha":826,"x_min":-15,"x_max":915,"o":"m 704 1054 l 689 983 l 915 961 l 915 861 l 800 790 l 746 158 l 782 158 l 790 51 q 699 -16 751 15 q 581 -72 646 -47 q 440 -110 515 -96 q 283 -124 365 -124 q 169 -116 224 -124 q 74 -87 115 -108 q 9 -30 33 -67 q -15 65 -15 7 q -2 143 -15 103 q 35 217 11 183 q 84 303 58 249 q 132 424 110 358 q 168 563 154 490 q 182 701 182 635 q 163 783 182 750 q 107 822 144 815 l 119 947 l 163 997 l 232 989 l 257 1024 l 218 1039 l 326 1203 l 704 1054 m 411 106 l 431 364 q 374 236 397 283 q 329 156 350 189 q 324 138 324 146 q 350 113 324 121 q 406 106 376 106 l 411 106 z "},"ú":{"ha":826,"x_min":-15,"x_max":915,"o":"m 411 106 l 431 364 q 374 236 397 283 q 329 156 350 189 q 324 138 324 146 q 350 113 324 121 q 406 106 376 106 l 411 106 m 800 790 l 746 158 l 782 158 l 790 51 q 699 -16 751 15 q 581 -72 646 -47 q 440 -110 515 -96 q 283 -124 365 -124 q 169 -116 224 -124 q 74 -87 115 -108 q 9 -30 33 -67 q -15 65 -15 7 q -3 142 -15 101 q 33 215 10 183 q 83 303 57 249 q 131 424 110 358 q 167 563 153 490 q 182 701 182 635 q 163 783 182 750 q 107 822 144 815 l 119 947 l 163 997 l 240 988 l 238 1006 l 278 1054 l 656 1203 l 725 1083 l 711 1078 l 690 1057 l 744 978 l 915 961 l 915 861 l 800 790 z "},"û":{"ha":826,"x_min":-15,"x_max":915,"o":"m 800 790 l 746 158 l 782 158 l 790 51 q 699 -16 751 15 q 581 -72 646 -47 q 440 -110 515 -96 q 283 -124 365 -124 q 169 -116 224 -124 q 74 -87 115 -108 q 9 -30 33 -67 q -15 65 -15 7 q -3 143 -15 103 q 33 215 10 183 q 83 303 57 249 q 131 424 110 358 q 167 563 153 490 q 182 701 182 635 q 163 783 182 750 q 107 822 144 815 l 119 947 l 163 997 l 217 990 l 500 1164 l 811 971 l 915 961 l 915 861 l 800 790 m 411 106 l 431 364 q 374 236 397 283 q 329 156 350 189 q 324 138 324 146 q 350 113 324 121 q 406 106 376 106 l 411 106 z "},"ü":{"ha":826,"x_min":-15,"x_max":915,"o":"m 750 1149 l 735 978 l 915 961 l 915 861 l 800 790 l 746 158 l 782 158 l 790 51 q 699 -16 751 15 q 581 -72 646 -47 q 440 -110 515 -96 q 283 -124 365 -124 q 169 -116 224 -124 q 74 -87 115 -108 q 9 -30 33 -67 q -15 65 -15 7 q -3 142 -15 101 q 33 215 10 183 q 83 303 57 249 q 131 424 110 358 q 167 563 153 490 q 182 701 182 635 q 163 783 182 750 q 107 822 144 815 l 119 947 l 163 997 l 213 990 l 224 1099 l 265 1149 l 750 1149 m 411 106 l 431 364 q 374 236 397 283 q 329 156 350 189 q 324 138 324 146 q 350 113 324 121 q 406 106 376 106 l 411 106 z "},"ý":{"ha":836,"x_min":-22,"x_max":931,"o":"m 815 790 l 761 167 l 799 167 l 799 57 q 692 -13 750 18 q 569 -67 633 -44 q 435 -103 504 -90 q 299 -115 367 -115 q 194 -108 250 -115 q 90 -83 139 -101 q 10 -31 42 -64 q -22 56 -22 3 q 8 145 -22 104 q 78 225 39 186 l 81 343 q 36 468 36 392 q 49 547 36 507 q 85 619 61 586 q 117 660 97 635 q 156 714 136 686 q 192 767 176 742 q 210 804 207 792 l 208 804 q 185 808 206 804 q 125 818 164 813 l 133 947 l 175 997 l 251 988 l 250 1006 l 290 1054 l 667 1203 l 736 1083 l 703 1057 l 756 978 l 931 961 l 931 861 l 815 790 m 374 540 q 401 505 374 518 q 460 489 428 492 l 481 725 q 463 696 479 722 q 425 635 443 668 q 379 560 407 603 q 374 540 374 553 m 439 247 q 415 215 431 232 q 383 181 400 197 q 353 150 367 165 q 336 124 340 135 q 426 111 349 111 l 439 247 z "},"ÿ":{"ha":836,"x_min":-22,"x_max":931,"o":"m 750 978 l 931 961 l 931 861 l 815 790 l 761 167 l 799 167 l 799 57 q 692 -13 750 18 q 569 -67 633 -44 q 435 -103 504 -90 q 299 -115 367 -115 q 194 -108 250 -115 q 90 -83 139 -101 q 10 -31 42 -64 q -22 56 -22 3 q 7 144 -22 104 q 75 224 36 185 l 81 343 q 36 468 36 392 q 55 553 36 510 q 101 641 74 597 q 158 726 128 685 q 210 804 188 768 l 208 804 q 178 811 193 810 q 125 818 164 813 l 133 947 l 175 997 l 228 990 l 239 1099 l 281 1149 l 765 1149 l 750 978 m 374 540 q 401 505 374 518 q 460 489 428 492 l 481 725 q 456 683 474 707 q 419 635 438 660 q 388 585 401 610 q 374 540 374 561 m 439 247 q 415 215 431 232 q 383 181 400 197 q 353 150 367 165 q 336 124 340 135 q 426 111 349 111 l 439 247 z "},"ı":{"ha":697,"x_min":22,"x_max":707,"o":"m 508 206 l 579 310 l 671 246 l 599 -50 l 550 -92 l 42 -92 l 22 206 l 163 313 l 185 247 l 222 667 l 143 567 l 58 625 l 131 915 l 172 965 l 688 965 l 707 663 l 567 564 l 546 625 l 508 206 z "},"Œ":{"ha":2094,"x_min":-1,"x_max":2079,"o":"m 1892 692 l 1911 692 l 1900 569 l 1892 569 l 1850 528 q 1640 543 1717 528 l 1863 429 l 1846 422 l 1808 383 l 1549 264 l 1565 257 l 2046 464 l 2019 167 l 2008 163 l 1969 124 l 1488 -93 l 1310 -12 q 1278 -37 1299 -24 l 1260 -57 q 1207 -94 1239 -81 q 1139 -113 1175 -107 q 1065 -122 1103 -119 q 996 -124 1028 -124 q 860 -112 926 -124 q 738 -81 794 -100 q 635 -40 681 -62 q 564 4 590 -18 q 565 39 564 25 q 569 63 567 53 q 574 84 571 74 q 579 108 576 94 l 619 147 l 639 360 l 293 411 l 293 347 l 288 353 l 244 310 l -1 503 l 32 579 l 71 618 l 76 629 l 329 669 l 264 811 q 254 832 257 822 q 251 853 251 842 q 269 899 251 881 l 299 928 q 378 968 315 967 l 1389 993 l 1375 840 l 1574 990 l 1614 953 l 1654 994 l 1656 1004 l 2010 1033 l 2079 974 l 1892 692 m 711 610 l 711 832 l 575 832 l 686 610 l 711 610 m 1033 119 q 965 335 990 218 l 946 107 q 961 106 950 106 l 981 106 q 1033 113 1003 106 l 1033 119 m 1267 567 q 1308 603 1289 588 q 1340 633 1326 619 l 1267 606 l 1267 567 z "},"œ":{"ha":1536,"x_min":35,"x_max":1540,"o":"m 738 576 q 774 608 757 594 q 803 633 790 621 l 739 610 q 738 593 738 604 l 738 576 m 504 119 q 466 222 483 168 q 436 333 449 275 l 418 107 q 432 106 422 106 l 451 106 q 506 113 474 106 q 505 116 506 115 q 504 119 504 117 m 1353 692 l 1372 692 l 1360 569 l 1353 569 l 1311 528 q 1190 532 1243 528 q 1100 543 1138 536 l 1324 429 l 1307 422 l 1269 383 l 1010 264 l 1026 257 l 1507 464 l 1481 167 l 1468 163 l 1431 124 l 947 -93 l 774 -17 q 694 -76 735 -54 q 613 -108 653 -97 q 537 -121 574 -118 q 468 -124 500 -124 q 332 -112 399 -124 q 208 -81 265 -100 q 106 -40 151 -62 q 35 4 61 -18 q 36 39 35 25 q 40 63 38 53 q 45 83 42 74 q 51 108 49 93 l 90 147 q 92 151 90 150 q 127 567 115 413 q 140 775 139 722 l 50 822 l 50 914 l 97 990 l 860 990 l 847 850 l 1033 990 l 1075 953 l 1115 994 l 1117 1004 l 1469 1033 l 1540 974 l 1353 692 z "},"Š":{"ha":1390,"x_min":7,"x_max":1488,"o":"m 1050 246 q 1048 294 1050 271 q 1043 340 1046 317 l 964 340 l 1050 246 m 907 572 l 978 572 q 960 606 960 585 q 963 626 960 619 q 971 640 965 632 l 1047 758 q 1003 749 1024 758 q 978 726 983 740 l 907 572 m 1478 1153 l 1417 1103 l 1283 1022 l 1417 1033 l 1488 974 l 1299 692 l 1318 692 l 1307 569 l 1299 569 l 1285 554 q 1342 370 1322 454 q 1363 215 1363 286 l 1360 144 q 1335 49 1353 97 q 1293 -50 1318 0 l 1244 -92 l 904 -92 l 889 -75 l 636 -75 l 629 -89 l 507 -89 l 546 351 l 569 375 l 556 389 l 304 424 l 324 328 l 315 335 l 272 292 l 7 501 l 25 581 l 65 619 l 67 631 l 278 686 l 222 808 q 208 851 208 831 q 220 892 208 872 q 251 929 232 913 q 292 956 269 946 q 336 965 315 965 l 931 965 l 707 1103 l 738 1153 l 1478 1153 z "},"š":{"ha":863,"x_min":-21,"x_max":960,"o":"m 524 244 q 515 340 524 292 l 436 340 l 524 244 m 381 572 l 450 572 q 432 606 432 585 q 435 626 432 619 q 444 640 438 632 l 511 746 q 476 732 493 739 q 446 715 460 725 l 381 572 m 772 692 l 792 692 l 779 569 l 772 569 l 750 549 l 763 540 q 838 213 838 358 q 765 -50 838 81 l 717 -92 l 378 -92 l 203 99 l 150 -47 l 143 -47 l 101 -89 l -21 -89 l 18 351 l 43 375 l 15 404 l 149 783 l 25 817 l 32 915 l 72 956 l 74 965 l 325 965 l 101 1103 l 132 1153 l 872 1153 l 811 1103 l 668 1014 l 889 1033 l 960 974 l 772 692 z "},"Ÿ":{"ha":1425,"x_min":49,"x_max":1521,"o":"m 1375 1149 l 1360 976 l 1521 961 l 1515 861 q 1467 833 1485 843 q 1438 815 1449 822 q 1419 803 1426 808 q 1406 792 1413 799 l 1351 167 l 1389 167 l 1389 57 q 1283 -13 1342 18 q 1159 -67 1224 -44 q 1026 -103 1094 -90 q 889 -115 957 -115 q 715 -94 796 -115 l 714 -94 q 611 -41 654 -79 q 568 56 568 -3 q 598 145 568 100 q 664 221 628 190 l 671 343 q 635 387 643 367 q 626 443 626 407 l 339 481 l 347 414 l 296 376 l 49 554 l 67 632 l 108 682 l 338 735 l 275 871 q 264 913 264 890 q 273 958 264 935 q 299 999 282 981 q 342 1031 317 1018 q 397 1044 367 1043 l 838 989 l 849 1099 l 890 1149 l 1375 1149 m 853 850 l 582 899 l 693 676 l 853 850 m 974 521 q 1008 500 988 508 q 1050 489 1028 492 l 1071 725 q 1047 685 1064 713 q 1011 629 1029 658 q 978 574 993 600 q 964 540 964 549 l 964 536 q 969 527 967 531 q 974 521 971 524 m 1017 111 l 1029 247 q 1006 214 1021 231 q 974 181 990 197 q 944 151 958 165 q 925 124 931 136 q 953 115 932 118 q 1001 111 975 111 l 1017 111 z "},"ˆ":{"ha":554,"x_min":-124,"x_max":646,"o":"m 646 936 l 585 894 l -124 894 l 278 1164 l 646 936 z "},"ˇ":{"ha":554,"x_min":-122,"x_max":647,"o":"m -122 1103 l -93 1153 l 647 1153 l 229 885 l -122 1103 z "},"˚":{"ha":515,"x_min":21,"x_max":451,"o":"m 21 1014 q 42 1099 22 1056 q 94 1176 63 1142 q 169 1233 126 1211 q 257 1254 211 1254 q 333 1239 297 1254 q 394 1197 368 1224 q 436 1135 421 1171 q 451 1060 451 1100 q 429 978 451 1019 q 372 901 407 936 q 295 845 338 867 q 211 824 253 824 q 138 839 172 824 q 77 880 103 854 q 36 940 51 906 q 21 1014 21 975 z "},"˜":{"ha":574,"x_min":14,"x_max":531,"o":"m 343 1107 l 469 1182 l 531 1111 l 313 871 l 199 946 l 65 878 l 14 947 l 235 1167 l 343 1107 z "},"–":{"ha":794,"x_min":21,"x_max":778,"o":"m 778 464 l 725 301 l 676 260 l 21 260 l 72 414 l 115 464 l 778 464 z "},"—":{"ha":1094,"x_min":21,"x_max":1053,"o":"m 1053 464 l 999 301 l 950 260 l 21 260 l 72 414 l 115 464 l 1053 464 z "},"‘":{"ha":440,"x_min":-69,"x_max":504,"o":"m 246 631 q 72 808 146 701 q -69 1065 -3 915 l -31 1115 l 385 1115 l 393 992 l 354 960 q 409 824 372 896 q 504 672 446 753 l 451 631 l 246 631 l 246 631 z "},"’":{"ha":464,"x_min":-96,"x_max":431,"o":"m 431 1026 q 128 624 326 792 l -96 631 q 57 929 31 807 l -1 954 l 11 1065 l 53 1115 l 424 1115 l 431 1026 l 431 1026 z "},"“":{"ha":713,"x_min":-69,"x_max":778,"o":"m 629 953 q 684 821 649 890 q 778 672 719 751 l 726 631 l 503 624 l 472 651 l 451 631 l 246 631 q 72 808 146 701 q -69 1065 -3 915 l -31 1115 l 669 1115 l 682 997 l 632 954 l 629 953 z "},"”":{"ha":735,"x_min":-96,"x_max":751,"o":"m 11 1065 l 53 1115 l 751 1115 q 683 971 719 1038 q 603 845 646 904 q 511 731 561 786 q 403 624 461 676 l 264 628 l 221 710 q 175 665 199 686 q 128 624 151 644 l -96 631 q 57 929 31 807 l -1 954 l 11 1065 z "},"•":{"ha":753,"x_min":6,"x_max":703,"o":"m 396 710 l 703 554 l 676 268 l 626 225 l 299 67 l 6 222 l 31 510 l 72 557 l 396 710 z "},"…":{"ha":1482,"x_min":6,"x_max":1453,"o":"m 22 161 l 64 208 l 272 307 l 471 206 l 454 13 l 404 -31 l 196 -131 l 6 -33 l 22 161 m 514 161 l 556 208 l 764 307 l 963 206 l 946 13 l 896 -31 l 688 -131 l 497 -33 l 514 161 m 1004 161 l 1046 208 l 1254 307 l 1453 206 l 1436 13 l 1386 -31 l 1178 -131 l 988 -33 l 1004 161 z "},"‹":{"ha":757,"x_min":65,"x_max":481,"o":"m 481 679 l 472 576 l 401 435 l 474 225 l 413 106 l 272 7 l 65 426 l 336 794 l 481 679 z "},"›":{"ha":753,"x_min":63,"x_max":460,"o":"m 69 88 l 63 194 l 144 367 l 72 576 l 133 696 l 274 794 l 460 436 l 456 328 l 219 -3 l 69 88 z "},"Ł":{"ha":861,"x_min":-26,"x_max":863,"o":"m 782 454 q 790 422 786 444 q 800 358 794 400 l 792 358 l 750 317 l 707 314 q 723 241 711 282 q 754 152 735 200 q 801 53 774 104 q 863 -50 828 1 l 853 -50 l 811 -92 l 54 -92 l 72 35 l 113 76 l 117 85 l 128 215 l 96 199 l -26 353 l 153 501 l 176 772 l 81 822 l 81 914 l 126 954 l 128 964 l 607 982 q 607 915 607 944 q 610 854 607 886 l 733 703 l 482 494 l 479 465 l 735 485 l 782 454 z "},"ł":{"ha":861,"x_min":-26,"x_max":863,"o":"m 782 454 q 790 422 786 444 q 800 358 794 400 l 792 358 l 750 317 l 707 314 q 723 241 711 282 q 754 152 735 200 q 801 53 774 104 q 863 -50 828 1 l 853 -50 l 811 -92 l 54 -92 l 72 35 l 113 76 l 117 85 l 128 215 l 96 199 l -26 353 l 153 501 l 176 772 l 81 822 l 81 914 l 126 954 l 128 964 l 607 982 q 607 915 607 944 q 610 854 607 886 l 733 703 l 482 494 l 479 465 l 735 485 l 782 454 z "},"Þ":{"ha":956,"x_min":22,"x_max":1021,"o":"m 999 365 l 668 224 l 599 -50 l 550 -92 l 42 -92 l 22 206 l 163 313 l 185 247 l 222 667 l 143 567 l 58 625 l 131 915 l 172 965 l 688 965 l 707 663 l 1021 479 l 999 365 z "},"þ":{"ha":956,"x_min":22,"x_max":1021,"o":"m 999 365 l 668 224 l 599 -50 l 550 -92 l 42 -92 l 22 206 l 163 313 l 185 247 l 222 667 l 143 567 l 58 625 l 131 915 l 172 965 l 688 965 l 707 663 l 1021 479 l 999 365 z "}}}
